<?xml version="1.0" encoding="UTF-8" standalone="no"?>
<!-- Created with Inkscape (http://www.inkscape.org/) -->

<svg
   xmlns:dc="http://purl.org/dc/elements/1.1/"
   xmlns:cc="http://creativecommons.org/ns#"
   xmlns:rdf="http://www.w3.org/1999/02/22-rdf-syntax-ns#"
   xmlns:svg="http://www.w3.org/2000/svg"
   xmlns="http://www.w3.org/2000/svg"
   xmlns:sodipodi="http://sodipodi.sourceforge.net/DTD/sodipodi-0.dtd"
   xmlns:inkscape="http://www.inkscape.org/namespaces/inkscape"
   width="210mm"
   height="297mm"
   viewBox="0 0 210 297"
   version="1.1"
   id="svg8"
   inkscape:version="0.92.1 r15371"
   sodipodi:docname="logo.svg">
  <defs
     id="defs2" />
  <sodipodi:namedview
     id="base"
     pagecolor="#ffffff"
     bordercolor="#666666"
     borderopacity="1.0"
     inkscape:pageopacity="0.0"
     inkscape:pageshadow="2"
     inkscape:zoom="0.175"
     inkscape:cx="466.35471"
     inkscape:cy="858.80551"
     inkscape:document-units="mm"
     inkscape:current-layer="g4622"
     showgrid="false"
     showguides="false"
     inkscape:window-width="1920"
     inkscape:window-height="1017"
     inkscape:window-x="-8"
     inkscape:window-y="-8"
     inkscape:window-maximized="1" />
  <metadata
     id="metadata5">
    <rdf:RDF>
      <cc:Work
         rdf:about="">
        <dc:format>image/svg+xml</dc:format>
        <dc:type
           rdf:resource="http://purl.org/dc/dcmitype/StillImage" />
        <dc:title />
      </cc:Work>
    </rdf:RDF>
  </metadata>
  <g
     inkscape:label="Camada 1"
     inkscape:groupmode="layer"
     id="layer1">
    <g
       id="g4622"
       inkscape:export-xdpi="96"
       inkscape:export-ydpi="96"
       transform="translate(352.79578,10.690781)">
      <path
         style="fill:#e3dea0;stroke-width:0.26458332"
         d="m -256.95583,373.96427 c -0.7276,-0.0522 -3.40651,-0.22535 -5.95312,-0.38481 -2.54662,-0.15949 -7.13052,-0.57089 -10.18646,-0.91424 -45.5279,-5.11543 -82.63448,-22.21302 -97.90149,-45.11003 -4.50714,-6.75968 -7.27038,-14.90967 -7.27038,-21.44348 0,-1.64161 -7.58108,-55.32215 -26.47653,-187.47682 -19.369,-135.466146 -26.452,-185.638256 -26.3849,-186.896376 0.5156,-9.67063 18.8623,-21.66124 48.38594,-31.6231 30.93205,-10.437064 68.81405,-17.548284 107.00153,-20.086344 20.02748,-1.33109 43.93495,-1.23437 63.5,0.25688 56.0706,4.27373 111.25726,19.64968 136.71478,38.091114 2.98474,2.16215 8.08569,7.27156 9.3145,9.32995 1.33567,2.23742 2.00509,4.2488 2.00509,6.0246 0,0.81244 -10.7827,84.1294 -23.96157,185.148806 -13.17884,101.0194 -23.95926,184.20742 -23.95651,184.86227 0.0106,2.50814 -0.5412,7.12149 -1.16205,9.71481 -1.67846,7.01117 -5.02875,13.11994 -10.98817,20.03541 -4.82378,5.59763 -8.64436,8.84836 -16.31484,13.88139 -7.25543,4.7607 -7.35875,4.82137 -13.04603,7.66104 -20.08466,10.02837 -44.77979,16.2727 -73.42187,18.5652 -3.50265,0.28033 -27.06341,0.56698 -29.89792,0.36373 z m -58.89339,-165.22163 c 4.74783,-0.77036 8.36553,-3.19569 10.36642,-6.94973 1.08761,-2.04058 1.34066,-4.67662 0.64887,-6.75942 -0.62929,-1.8946 -2.41767,-4.21188 -4.19559,-5.43637 -0.82744,-0.56988 -1.50443,-1.17512 -1.50443,-1.34498 0,-0.16986 0.93177,-0.91575 2.07059,-1.65751 3.63906,-2.37022 7.07331,-6.21221 8.66953,-9.69883 4.96756,-10.85059 -1.51621,-22.64617 -14.91574,-27.1354 -6.82766,-2.28749 -15.39798,-2.22528 -22.07996,0.16025 -12.22989,4.36618 -18.69682,14.87856 -15.4422,25.10224 0.91176,2.86409 2.29531,5.14133 4.60038,7.57193 4.41332,4.65365 9.91051,7.33107 17.58438,8.56445 1.18025,0.18971 1.24048,0.53986 0.32488,1.88908 -1.67163,2.46329 -1.88271,6.20532 -0.50868,9.01795 1.70087,3.48165 5.49777,5.99789 10.05203,6.66152 2.21353,0.32255 2.4284,0.32329 4.32952,0.0148 z m 33.09652,-71.56059 c 11.8681,-1.78176 26.05462,-7.65988 36.31651,-15.04756 4.12432,-2.96915 35.83269,-19.59732 44.12808,-23.141179 5.50163,-2.350336 11.19932,-2.959825 32.53249,-3.480036 24.07917,-0.587171 28.02136,-1.14382 37.82322,-5.340757 6.33878,-2.714131 17.85885,-9.068168 18.11801,-9.993228 0.0626,-0.223518 2.82675,-19.535768 6.14251,-42.916116 l 6.02866,-42.5097198 -1.0406,-2.60174 c -2.89555,-7.2394102 -8.81264,-17.6727902 -12.16253,-21.4456702 -6.05375,-6.8182 -30.80102,-15.77612 -59.40719,-21.50397 -26.10794,-5.22763 -53.40875,-7.49063 -80.34653,-6.66004 -18.11441,0.55854 -30.52616,1.61472 -47.19579,4.01614 -23.78235,3.42608 -48.64856,9.53154 -61.37017,15.06837 -7.20204,3.13454 -15.41398,12.0051 -21.51651,23.2422 l -1.10537,2.0354 0.004,5.6885402 c 0.002,3.1287 0.15831,7.29589002 0.34736,9.26042 0.9064,9.4187998 2.4302,21.7490998 4.29974,34.7927068 2.4023,16.760635 7.7849,50.520027 8.56359,53.710417 0.21311,0.873125 0.45256,1.90631 0.53212,2.295965 0.12334,0.604107 0.46455,0.831831 2.31644,1.545995 3.99442,1.540414 8.72153,2.612874 13.86009,3.144504 2.93853,0.304017 4.88187,0.970891 7.39646,2.538169 3.53535,2.203489 6.23173,4.630119 17.05244,15.346489 5.89359,5.83678 12.08484,11.72726 13.75833,13.08998 7.45357,6.06942 12.57659,8.378 20.50521,9.24022 3.17619,0.34541 10.96975,0.14246 14.41979,-0.3755 z"
         id="path4521"
         inkscape:connector-curvature="0"
         inkscape:export-xdpi="96"
         inkscape:export-ydpi="96" />
      <path
         style="fill:#b3cce1;stroke-width:0.26458332"
         d="m -256.95583,373.96427 c -0.7276,-0.0522 -3.40651,-0.22535 -5.95312,-0.38481 -2.54662,-0.15949 -7.13052,-0.57089 -10.18646,-0.91424 -45.5279,-5.11543 -82.63448,-22.21302 -97.90149,-45.11003 -4.50714,-6.75968 -7.27038,-14.90967 -7.27038,-21.44348 0,-1.64161 -7.58108,-55.32215 -26.47653,-187.47682 -19.369,-135.466146 -26.452,-185.638256 -26.3849,-186.896376 0.5156,-9.67063 18.8623,-21.66124 48.38594,-31.6231 30.93205,-10.437064 68.81405,-17.548284 107.00153,-20.086344 20.02748,-1.33109 43.93495,-1.23437 63.5,0.25688 56.0706,4.27373 111.25726,19.64968 136.71478,38.091114 2.98474,2.16215 8.08569,7.27156 9.3145,9.32995 1.33567,2.23742 2.00509,4.2488 2.00509,6.0246 0,0.81244 -10.7827,84.1294 -23.96157,185.148806 -13.17884,101.0194 -23.95926,184.20742 -23.95651,184.86227 0.0106,2.50814 -0.5412,7.12149 -1.16205,9.71481 -1.67846,7.01117 -5.02875,13.11994 -10.98817,20.03541 -4.82378,5.59763 -8.64436,8.84836 -16.31484,13.88139 -7.25543,4.7607 -7.35875,4.82137 -13.04603,7.66104 -20.08466,10.02837 -44.77979,16.2727 -73.42187,18.5652 -3.50265,0.28033 -27.06341,0.56698 -29.89792,0.36373 z m -76.59687,-57.0837 c 0,-0.0502 -0.26789,-0.31811 -0.59531,-0.59531 l -0.59532,-0.50403 0.50403,0.59531 c 0.47367,0.55944 0.6866,0.71575 0.6866,0.50403 z m 193.24508,-21.33997 c 1.32966,-9.50322 12.5014,-98.08744 13.51393,-107.15625 0.36555,-3.27422 1.02981,-9.28687 1.47611,-13.36146 0.4463,-4.07458 3.22665,-26.81552 6.17853,-50.53542 2.9519,-23.71989 5.3703,-43.484262 5.37424,-43.920825 0.004,-0.436562 2.72838,-19.923123 6.05438,-43.303471 l 6.04721,-42.5097198 -1.0406,-2.60174 c -2.89555,-7.2394102 -8.81264,-17.6727902 -12.16253,-21.4456702 -6.05375,-6.8182 -30.80102,-15.77612 -59.40719,-21.50397 -26.10794,-5.22763 -53.40875,-7.49063 -80.34653,-6.66004 -18.11441,0.55854 -30.52616,1.61472 -47.19579,4.01614 -23.78235,3.42608 -48.64856,9.53154 -61.37017,15.06837 -7.20204,3.13454 -15.41398,12.0051 -21.51651,23.2422 l -1.10537,2.0354 0.004,5.6885402 c 0.004,5.80323 0.19079,8.39361002 1.34719,18.6531298 1.80064,15.97514 5.40535,40.696983 9.8656,67.660198 0.98158,5.933818 1.68717,10.788758 1.56799,10.788758 -0.11919,0 -0.2167,0.359915 -0.2167,0.799812 0,0.439896 4.87647,36.843248 10.83661,80.896348 10.36193,76.58812 12.67279,93.99535 14.16302,106.68717 0.96658,8.23206 0.97577,8.29673 1.2402,8.73125 0.16691,0.2743 0.20014,0.15169 0.10757,-0.39687 -0.0737,-0.43657 -0.26456,-1.98438 -0.4242,-3.43959 -1.34533,-12.2638 -4.99711,-39.67146 -22.62655,-169.81909 -1.3766,-10.16259 -2.5029,-18.764856 -2.5029,-19.116148 0,-0.661684 0.24056,-0.806935 0.67469,-0.407377 0.52126,0.479753 4.74407,1.924188 7.8244,2.676377 1.75925,0.429594 4.82314,0.966669 6.80863,1.193499 4.125,0.471254 4.8082,0.650425 7.18186,1.883476 3.89096,2.021243 9.19215,6.668093 18.14053,15.901393 13.53206,13.96293 21.23408,19.75424 28.69072,21.57316 3.71408,0.90599 5.97946,1.1167 11.90625,1.10747 6.241,-0.01 9.68734,-0.40782 14.93346,-1.72498 10.29363,-2.58445 21.64683,-7.84364 30.27722,-14.02544 4.30654,-3.0847 37.94043,-20.61233 44.84311,-23.369096 4.79542,-1.915174 11.41518,-2.521993 33.50663,-3.071469 21.73806,-0.540689 26.01161,-1.176306 35.84871,-5.33187 4.36742,-1.844964 10.01427,-4.74612 14.30488,-7.349371 1.69196,-1.026565 3.16164,-1.813748 3.26591,-1.749296 0.1043,0.06446 -2.10179,18.370577 -4.90238,40.680262 -5.09413,40.57973 -6.79783,54.71533 -7.79084,64.64017 -0.91387,9.134 -12.71577,102.22936 -14.40619,113.63854 -0.0924,0.62384 -0.0583,0.79653 0.10456,0.52917 0.13301,-0.21828 0.54999,-2.59953 0.92668,-5.29167 z m -173.12741,-87.00561 c 4.98485,-1.71505 8.32368,-5.07817 9.25542,-9.32283 0.3647,-1.66145 0.13844,-3.21903 -0.77831,-5.35771 -0.59098,-1.37871 -2.77335,-3.84357 -4.16407,-4.70307 -0.48554,-0.30009 -0.88279,-0.68834 -0.88279,-0.86278 0,-0.17444 0.90462,-0.90887 2.01027,-1.63206 2.53649,-1.65909 6.04723,-5.2819 7.43955,-7.67704 1.79463,-3.08719 2.50655,-5.3989 2.6561,-8.62478 0.16208,-3.49594 -0.34529,-6.01523 -1.79267,-8.90149 -3.19643,-6.37407 -10.17437,-11.21767 -18.79748,-13.0479 -3.92452,-0.83296 -10.10159,-0.83859 -13.95305,-0.0127 -12.53767,2.68843 -20.9452,11.2539 -20.9452,21.33862 0,10.05136 8.57024,18.78777 20.8941,21.2992 1.50931,0.30758 2.83876,0.61767 2.95433,0.68911 0.11557,0.0714 -0.0769,0.57062 -0.42766,1.10931 -1.72743,2.65288 -1.94901,6.52746 -0.53731,9.3957 1.10841,2.25203 3.74104,4.63841 6.28572,5.69775 1.10122,0.45845 2.63635,0.94689 3.4114,1.08543 1.98495,0.35481 5.64938,0.1198 7.37165,-0.47273 z"
         id="path4519"
         inkscape:connector-curvature="0"
         inkscape:export-xdpi="96"
         inkscape:export-ydpi="96" />
      <path
         style="fill:#f2dd5b;stroke-width:0.26458332"
         d="m -257.74958,337.88235 c -26.15449,-1.1579 -49.92647,-7.21453 -71.39228,-18.18936 -3.53791,-1.80883 -5.31397,-3.40075 -8.39561,-7.52507 -2.22061,-2.97196 -5.94768,-8.74636 -7.06042,-10.93878 -0.54499,-1.07378 -1.47671,-7.33028 -2.71874,-18.25625 -1.71847,-15.11718 -4.54765,-36.35062 -22.62692,-169.81909 -1.3766,-10.16259 -2.5029,-18.764856 -2.5029,-19.116148 0,-0.661684 0.24056,-0.806935 0.67469,-0.407377 0.52126,0.479753 4.74407,1.924188 7.8244,2.676377 1.75925,0.429594 4.82314,0.966669 6.80863,1.193499 4.125,0.471254 4.8082,0.650425 7.18186,1.883476 3.89096,2.021243 9.19215,6.668093 18.14053,15.901393 13.53206,13.96293 21.23408,19.75424 28.69072,21.57316 3.71408,0.90599 5.97946,1.1167 11.90625,1.10747 6.241,-0.01 9.68734,-0.40782 14.93346,-1.72498 10.29363,-2.58445 21.64683,-7.84364 30.27722,-14.02544 4.30654,-3.0847 37.94043,-20.61233 44.84311,-23.369096 4.79542,-1.915174 11.41518,-2.521993 33.50663,-3.071469 21.73806,-0.540689 26.01161,-1.176306 35.84871,-5.33187 4.36742,-1.844964 10.01427,-4.74612 14.30488,-7.349371 1.69196,-1.026565 3.16164,-1.813748 3.26591,-1.749296 0.1043,0.06446 -2.10179,18.370577 -4.90238,40.680262 -5.09413,40.57973 -6.79783,54.71533 -7.79084,64.64017 -0.75745,7.57058 -10.27496,83.06385 -13.07476,103.7096 -1.27979,9.43721 -1.55024,10.96381 -2.10799,11.89892 -0.35189,0.59 -2.46292,3.8707 -4.69116,7.29044 l -4.05133,6.21771 -5.55625,2.79 c -18.84464,9.46264 -43.40164,16.04333 -68.52708,18.36362 -10.31289,0.95237 -23.86053,1.34363 -32.80834,0.9475 z m -55.68545,-129.34736 c 4.98485,-1.71505 8.32368,-5.07817 9.25542,-9.32283 0.3647,-1.66145 0.13844,-3.21903 -0.77831,-5.35771 -0.59098,-1.37871 -2.77335,-3.84357 -4.16407,-4.70307 -0.48554,-0.30009 -0.88279,-0.68834 -0.88279,-0.86278 0,-0.17444 0.90462,-0.90887 2.01027,-1.63206 2.53649,-1.65909 6.04723,-5.2819 7.43955,-7.67704 1.79463,-3.08719 2.50655,-5.3989 2.6561,-8.62478 0.16208,-3.49594 -0.34529,-6.01523 -1.79267,-8.90149 -3.19643,-6.37407 -10.17437,-11.21767 -18.79748,-13.0479 -3.92452,-0.83296 -10.10159,-0.83859 -13.95305,-0.0127 -12.53767,2.68843 -20.9452,11.2539 -20.9452,21.33862 0,10.05136 8.57024,18.78777 20.8941,21.2992 1.50931,0.30758 2.83876,0.61767 2.95433,0.68911 0.11557,0.0714 -0.0769,0.57062 -0.42766,1.10931 -1.72743,2.65288 -1.94901,6.52746 -0.53731,9.3957 1.10841,2.25203 3.74104,4.63841 6.28572,5.69775 1.10122,0.45845 2.63635,0.94689 3.4114,1.08543 1.98495,0.35481 5.64938,0.1198 7.37165,-0.47273 z"
         id="path4517"
         inkscape:connector-curvature="0"
         inkscape:export-xdpi="96"
         inkscape:export-ydpi="96" />
      <path
         style="fill:#fadc33;stroke-width:0.26458332"
         d="m -257.74958,337.88235 c -26.15449,-1.1579 -49.92647,-7.21453 -71.39228,-18.18936 -3.53791,-1.80883 -5.31397,-3.40075 -8.39561,-7.52507 -2.22061,-2.97196 -5.94768,-8.74636 -7.06042,-10.93878 -0.60334,-1.18874 -2.34357,-13.14831 -2.09263,-14.38137 0.14803,-0.72739 -2.56397,-23.10339 -4.84172,-39.9478 -0.72141,-5.335 -5.66743,-41.89177 -10.99113,-81.23724 -5.32371,-39.3455 -9.63857,-71.57817 -9.58857,-71.628169 0.05,-0.05 0.97746,0.271955 2.06101,0.715455 2.60506,1.066255 8.23014,2.489115 11.36281,2.874219 5.58825,0.686972 5.91742,0.764564 8.33438,1.964566 3.7826,1.878039 7.37524,4.983139 17.4625,15.092759 11.85374,11.88002 15.10234,14.77466 20.6338,18.38564 6.25341,4.08227 12.47804,5.52932 22.49328,5.22904 5.46597,-0.16388 8.59583,-0.57089 13.49375,-1.75473 10.06371,-2.43243 19.6592,-6.83653 30.03021,-13.78313 6.04006,-4.0457 39.93604,-21.71678 45.52436,-23.73334 4.97019,-1.793505 10.34405,-2.298399 30.29669,-2.846491 22.09658,-0.606983 26.95169,-1.095627 33.41109,-3.362656 6.08134,-2.134343 13.51481,-5.725454 19.98387,-9.654223 1.29159,-0.784394 2.40337,-1.371115 2.47066,-1.303827 0.0673,0.06729 -2.32908,19.687737 -5.3253,43.600987 -2.99619,23.91326 -6.04689,48.83646 -6.77934,55.3849 -0.73242,6.54843 -2.45425,20.83593 -3.82624,31.75 -4.19632,33.38081 -8.55642,67.78384 -9.80821,77.39062 -0.65418,5.02047 -1.22309,9.67854 -1.26423,10.35127 -0.0645,1.05349 -0.51007,1.89738 -3.21332,6.08542 -1.72614,2.67425 -3.83444,5.90341 -4.68511,7.17592 l -1.54662,2.31368 -5.88113,2.89626 c -19.21698,9.46372 -43.08799,15.822 -68.05821,18.12795 -10.31289,0.95237 -23.86053,1.34363 -32.80834,0.9475 z m -55.13398,-129.18424 c 3.45135,-1.26879 5.71714,-2.97672 7.40911,-5.58499 2.11122,-3.25456 2.30716,-6.19344 0.63932,-9.58913 -0.87333,-1.77811 -2.68955,-3.82252 -4.34112,-4.88654 l -0.62668,-0.40375 1.59101,-0.98203 c 2.089,-1.28939 5.35816,-4.36234 6.79031,-6.38273 4.93214,-6.95796 5.30631,-14.41537 1.06473,-21.22072 -4.93082,-7.91117 -15.84438,-12.81173 -27.1104,-12.17348 -14.86544,0.84217 -26.19375,10.46768 -26.19375,22.25649 0,10.31134 8.90799,19.30447 21.4849,21.69027 1.18699,0.22516 2.19583,0.44707 2.24187,0.49311 0.046,0.046 -0.27223,0.74083 -0.70726,1.54403 -2.08402,3.84773 -1.16645,8.87079 2.20246,12.05698 1.59724,1.51058 4.47945,3.06901 6.73662,3.64247 2.2938,0.58279 6.59217,0.35858 8.81888,-0.45998 z"
         id="path4515"
         inkscape:connector-curvature="0"
         inkscape:export-xdpi="96"
         inkscape:export-ydpi="96" />
      <path
         sodipodi:nodetypes="csccscscccccccsccsccscccccccscscccccccccscscccc"
         style="fill:#1a1a1a;stroke-width:0.26458332"
         d="m -162.585,199.59849 c -3.63532,-0.30636 -6.55019,-0.7238 -9.26042,-1.32615 -3.27937,-0.72884 -12.33861,-3.61389 -13.103,-4.17282 -0.4422,-0.32335 -0.42212,-0.58163 0.38453,-4.94718 1.11004,-6.00744 1.0509,-5.79668 1.6265,-5.79668 0.27078,0 2.25217,0.63805 4.40309,1.41788 7.56072,2.74116 12.03926,3.80677 17.0261,4.05109 2.30479,0.11292 3.7668,0.059 4.7625,-0.17569 2.95815,-0.69725 5.20237,-2.30605 6.37871,-4.57271 0.72541,-1.39774 0.98846,-5.39393 0.47564,-7.22559 -0.45323,-1.61872 -2.28645,-3.60828 -4.12713,-4.47907 -0.80436,-0.38053 -4.69799,-1.46675 -8.65251,-2.41382 -11.49254,-2.75238 -13.93333,-3.77638 -17.53686,-7.3573 -3.74681,-3.72327 -5.04312,-7.47673 -4.7895,-13.86798 0.16021,-4.03756 0.56935,-5.87123 1.92696,-8.63618 1.8155,-3.6975 4.66506,-6.45676 8.52663,-8.2564 3.23231,-1.50641 5.49195,-1.97945 10.15721,-2.12635 4.67498,-0.1472 7.87617,0.15169 12.38488,1.15636 3.65948,0.81544 13.31392,3.9284 13.72698,4.42611 0.21966,0.26469 0.061,1.51926 -0.62724,4.95855 -1.18428,5.91849 -1.15229,5.79485 -1.49911,5.79485 -0.16253,0 -2.38307,-0.78253 -4.93453,-1.73894 -10.91343,-4.09091 -19.23095,-5.10286 -23.67672,-2.8806 -2.99656,1.49783 -4.19258,3.47115 -4.36873,7.20796 -0.14499,3.07586 0.22262,4.45612 1.60517,6.02679 1.58845,1.80456 3.37211,2.55336 9.73822,4.08813 3.1187,0.75189 6.76042,1.64822 8.09276,1.99186 8.61822,2.22282 13.23901,5.95601 15.215,12.2923 0.54353,1.74295 0.61883,2.51553 0.61883,6.35 0,3.83678 -0.0751,4.60603 -0.61963,6.35 -2.19493,7.02951 -7.61619,11.80561 -15.12308,13.32344 -2.08941,0.42246 -6.71843,0.70776 -8.73125,0.53814 z m -51.09519,-0.64958 c -2.00255,-0.21476 -7.69378,-1.40182 -8.87608,-1.85132 -0.34007,-0.1293 -0.61434,-0.44637 -0.60947,-0.70463 0.0273,-1.45064 1.25912,-9.11943 1.5042,-9.36451 0.21146,-0.21145 1.1102,-0.0921 3.29152,0.43712 5.65247,1.37139 9.51045,0.94353 11.12874,-1.2342 1.45176,-1.95361 1.38676,-0.71049 1.5292,-29.24596 0.0728,-14.5764 0.23151,-26.6017 0.35277,-26.72291 0.12127,-0.12121 2.71523,-0.22038 5.76434,-0.22038 4.63727,0 5.58588,0.0649 5.80084,0.39688 0.16321,0.25206 0.22981,10.19561 0.18252,27.25208 -0.0744,26.84037 -0.0748,26.85637 -0.66331,28.97188 -2.15986,7.7638 -7.25809,11.85941 -15.40591,12.3762 -1.09141,0.0692 -2.89112,0.0286 -3.99936,-0.0902 z"
         id="path4513"
         inkscape:connector-curvature="0"
         inkscape:export-xdpi="96"
         inkscape:export-ydpi="96" />
      <path
         inkscape:connector-curvature="0"
         id="path4515-1"
         d="m -265.80162,161.01879 v 0.001 c -0.0302,0.006 -0.0605,0.027 -0.0915,0.0558 -0.20831,-0.0102 -0.35957,0.0523 -0.48731,0.19431 -0.16108,0.17899 -0.91787,3.02053 -1.68207,6.31434 -0.92686,3.99555 -1.54466,6.17563 -1.8557,6.55051 -0.27988,0.33728 -0.58002,1.28116 -0.75137,2.36057 -0.15703,0.98901 -0.53856,2.69006 -0.84801,3.78013 -0.30951,1.09006 -0.56275,2.55013 -0.56275,3.24529 0,0.69514 -0.14777,1.82619 -0.32866,2.51354 -0.18082,0.68734 -0.45344,2.00132 -0.60463,2.91972 -0.27371,1.66154 -1.87624,9.07859 -2.91404,13.48703 -0.56322,2.39239 -1.54845,6.8504 -3.17963,14.38568 -0.51996,2.40195 -1.30693,5.87024 -1.74977,7.70702 -0.44283,1.83676 -1.17753,5.01551 -1.63245,7.06416 -0.79222,3.568 -1.15795,4.58384 -1.99213,4.25917 -0.10731,-0.0642 -0.21063,-0.1589 -0.30697,-0.28628 -0.50948,-0.6738 -1.55175,-1.13947 -2.55177,-1.13947 -0.4544,0 -0.73758,0.0521 -1.11157,0.3266 -0.36449,0.10306 -0.67527,0.26851 -0.87849,0.50074 -1.79735,2.0536 -2.53625,2.77306 -3.76413,3.52847 -0.047,0.026 -0.0912,0.0534 -0.13901,0.0791 -0.91382,0.49074 -1.70648,0.97297 -2.38537,1.45521 -1.68119,1.15119 -2.95601,2.38496 -3.27938,3.23443 -0.42593,1.12004 -0.42394,3.17913 0.005,4.41368 0.18531,0.53267 0.46058,1.65787 0.61185,2.50011 0.15134,0.8422 0.57734,2.35938 0.9467,3.37189 0.96348,2.641 1.27378,4.38086 0.87593,4.91081 -0.11115,0.14805 -0.54684,0.44376 -1.08881,0.76171 -0.10428,0.055 -0.20064,0.10886 -0.308,0.16381 -0.74547,0.38169 -1.3534,0.71809 -1.92805,1.07332 -0.72919,0.43252 -1.48402,0.91598 -2.00454,1.30225 -1.71074,1.26952 -5.11894,4.54903 -6.43112,6.18877 -0.7761,0.96985 -0.86053,1.22918 -0.95033,2.89181 -0.10747,1.98864 -0.19129,2.295 -0.82113,2.32957 -0.23493,-0.17185 -0.43241,-0.17973 -0.68937,-0.0289 -0.2381,0.13986 -1.15115,0.23606 -2.0283,0.21343 -0.003,-3e-5 -0.002,9e-5 -0.004,0 -0.17386,-0.0393 -0.32936,-0.0489 -0.4749,-0.0253 -19.1556,11.22671 -28.40628,16.78026 -32.56442,21.29172 0.4299,2.77316 0.8949,5.27635 1.1534,5.7857 1.11281,2.19242 4.83944,7.9669 7.06004,10.93885 3.0817,4.12433 4.85798,5.7163 8.39586,7.52512 21.46591,10.97484 45.23753,17.03118 71.39204,18.18908 8.94779,0.39613 22.49543,0.005 32.80834,-0.94724 24.97018,-2.30595 48.84136,-8.66436 68.05837,-18.12808 l 5.88129,-2.89645 1.54667,-2.31357 c 0.85072,-1.27251 2.95889,-4.50154 4.68498,-7.17579 2.7033,-4.18804 3.14926,-5.03193 3.21326,-6.08542 0.0202,-0.33126 0.17042,-1.64282 0.39378,-3.47419 -14.76735,-3.26504 -35.55376,-8.30043 -55.86121,-12.93513 -0.15283,-0.11941 -0.25853,-0.12925 -0.40979,0.004 -0.32136,0.0811 -0.63958,0.31991 -0.73689,0.64027 -0.007,0.0213 -0.018,0.039 -0.0279,0.0568 -0.18243,0.0756 -0.37795,0.0747 -0.63251,0.008 -0.12925,-0.0339 -0.21016,-0.0614 -0.308,-0.0909 -0.21698,-0.14438 -0.41124,-0.3435 -0.50332,-0.57258 -0.0456,-0.11345 -0.11271,-0.224 -0.18965,-0.33176 -0.0405,-0.20434 -0.17984,-0.33899 -0.34004,-0.37569 -0.45175,-0.40793 -1.01486,-0.63598 -1.17668,-0.35295 -0.14833,0.2593 -0.68101,0.54639 -1.15496,0.68575 -0.35039,-0.0384 -0.65307,-0.098 -0.77825,-0.18293 -0.0453,-0.0307 -0.0865,-0.0876 -0.12454,-0.15504 -0.004,-0.1077 0.003,-0.22841 0.0362,-0.37465 0.10139,-0.44376 0.06,-0.5916 -0.30334,-0.7059 -0.22953,-0.36452 -0.79817,-0.42412 -1.62005,-0.14728 -0.74932,0.25241 -0.87923,0.19838 -2.16421,-0.8971 -0.752,-0.64127 -2.05258,-1.54013 -2.88922,-1.9973 -2.46185,-1.34508 -3.93925,-2.47877 -6.66988,-5.11648 -1.41598,-1.3678 -3.32013,-3.13308 -4.23127,-3.92276 -1.28577,-1.1144 -1.74901,-1.70098 -2.06862,-2.61947 -0.43982,-1.26401 -1.29501,-2.0586 -3.57497,-3.32228 -0.38622,-0.21416 -0.70856,-0.3591 -0.99322,-0.44804 -0.21805,-0.14469 -0.49012,-0.32126 -0.63458,-0.42219 -0.3579,-0.25016 -0.73033,-0.49391 -1.11416,-0.73691 -0.0917,-0.43389 -0.29853,-0.58459 -0.92551,-0.80925 -1.45886,-0.5228 -2.16138,-1.23479 -3.55793,-3.60547 -1.47193,-2.49873 -3.31346,-4.71784 -4.54906,-5.48028 -0.45054,-0.27798 -1.66251,-1.18864 -2.69235,-2.02313 -1.02987,-0.83453 -2.1354,-1.58973 -2.45721,-1.67845 -0.32182,-0.0888 -1.3221,-0.55925 -2.22314,-1.04645 -1.42057,-0.76805 -1.84674,-0.88051 -3.20548,-0.84285 -1.39321,0.0385 -1.69418,-0.0469 -2.71198,-0.76377 -0.73316,-0.51634 -1.20785,-0.72463 -1.86086,-0.78445 -0.15656,-0.0187 -0.3202,-0.0295 -0.50075,-0.0295 -0.61392,0 -1.1724,-0.10046 -1.2423,-0.22376 -0.0694,-0.12332 -0.008,-1.23162 0.13695,-2.46289 0.27752,-2.35973 0.10728,-4.22753 -0.6749,-7.4042 -0.10676,-0.43345 -0.19077,-0.76243 -0.31832,-1.048 -0.34925,-1.08486 -0.99341,-1.43806 -4.23334,-3.25664 -1.59962,-0.89791 -3.21656,-1.91781 -3.59357,-2.26601 -0.0609,-0.0562 -0.11186,-0.1056 -0.16227,-0.15503 -0.40417,-0.97584 -0.30252,-2.8572 0.28422,-3.40858 0.37579,-0.35319 0.46818,-0.75781 0.46818,-2.05259 0,-0.90386 -0.10343,-1.61282 -0.23461,-1.61282 -0.0397,0 -0.0721,-0.008 -0.10128,-0.0207 -0.042,-0.11503 -0.0856,-0.21178 -0.13076,-0.2651 0.007,-0.2413 0.17934,-0.57271 0.46665,-0.74155 0.25744,-0.15121 0.46821,-0.44467 0.46821,-0.65164 0,-0.20695 -0.21077,-0.37569 -0.46821,-0.37569 -0.12245,0 -0.22741,0.0337 -0.30438,0.007 -0.0239,-0.0225 -0.0505,-0.0471 -0.0806,-0.0729 -0.21875,-0.44396 0.29697,-3.05911 2.9218,-17.14624 0.64508,-3.4616 1.29362,-6.87193 1.44023,-7.57835 0.14674,-0.70648 0.5212,-2.72927 0.83198,-4.49533 0.31073,-1.76612 0.93956,-5.17642 1.39785,-7.57835 1.91489,-10.03594 3.1333,-16.91345 3.02927,-17.09818 -0.003,-0.003 -0.0124,-0.007 -0.0124,-0.01 -0.0114,-0.15401 -0.0805,-0.30488 -0.19635,-0.38499 -0.52263,-0.36048 -10.81889,-3.70916 -11.17505,-3.6344 z m -0.15242,69.5601 h 5e-4 0.004 c 0.10899,0 0.21627,0.0811 0.3111,0.2496 0.08,0.14195 0.76197,0.71767 1.51567,1.2795 0.75377,0.5618 1.83644,1.45708 2.40604,1.98954 0.56959,0.53249 1.32403,1.19897 1.6769,1.48156 l 0.64132,0.51367 -0.30284,3.14761 c -0.31861,3.30508 -0.34941,3.36632 -1.47537,2.89647 -0.4581,-0.19121 -0.60047,-0.43139 -0.60047,-1.01286 0,-0.41903 -0.10909,-0.83543 -0.24183,-0.92553 -0.13287,-0.0901 -0.46183,-0.67877 -0.73123,-1.30793 -0.11422,-0.26671 -0.22307,-0.48249 -0.33485,-0.67334 -0.3175,-0.65217 -0.92464,-1.02351 -1.87638,-1.14774 -0.0555,-0.0114 -0.103,-0.0243 -0.16227,-0.0351 l -0.45114,-0.0837 c -0.22788,-0.0676 -0.40401,-0.1642 -0.53898,-0.30644 l -0.0631,-1.95751 c -0.0378,-1.19037 -0.17124,-2.30107 -0.29713,-2.46755 -0.15364,-0.19742 -0.15216,-0.53639 0,-0.97564 0.15082,-0.43517 0.33886,-0.66374 0.52039,-0.66456 z m -2.86081,14.91071 c 0.0204,-0.003 0.0423,5e-5 0.0651,0.004 0.10949,0.0254 0.24739,0.14045 0.40566,0.34984 2.35868,0.63885 0.51488,1.02787 -0.48731,0.96274 -0.2033,-0.0131 -0.33694,-0.25441 -0.33694,-0.64234 0,-0.39459 0.21087,-0.65631 0.35348,-0.67438 z m 14.30816,8.46512 c 0.30419,0.0219 0.73779,0.21267 1.37769,0.47955 l 4.35634,3.99201 c 1.22311,1.50491 2.21686,2.46443 3.0091,2.90421 0.6508,0.36116 1.66608,0.92401 2.25621,1.25057 0.5901,0.32654 1.94331,0.86854 3.00704,1.20562 1.88251,0.59651 1.96078,0.65441 2.93677,2.13061 0.55155,0.83424 1.33194,1.93518 1.73323,2.44688 0.40125,0.51167 0.72914,1.07465 0.72914,1.25161 0,0.17693 -0.50064,0.79464 -1.11207,1.37252 -2.53486,2.39561 -5.43615,5.68981 -5.94743,6.75205 -0.32385,0.67268 -0.68771,1.10698 -0.89141,1.06453 -0.18923,-0.0394 -0.80881,-0.80456 -1.37771,-1.69964 -0.28128,-0.44259 -0.70501,-1.00886 -1.1901,-1.62161 -1.19536,-1.57346 -2.86901,-3.44291 -4.56044,-5.09374 -0.78359,-0.78755 -1.53143,-1.49612 -2.16318,-2.03088 -1.05169,-0.89024 -2.02181,-1.92513 -2.15595,-2.29961 -0.13409,-0.37447 -0.47046,-1.76474 -0.74724,-3.08921 -0.47538,-2.27438 -0.48646,-2.59153 -0.20463,-5.71542 0.23276,-2.57913 0.27525,-3.34861 0.94464,-3.30005 z m -13.39299,7.75353 c 0.35639,0.0277 0.52067,0.33181 0.40618,0.83251 -0.0919,0.40174 0.0409,0.7509 0.4403,1.16271 0.36179,0.37302 0.61333,0.97567 0.68678,1.64538 0.28199,2.57102 0.32237,4.01164 0.11419,4.01164 -0.12216,0 -0.64862,-0.31041 -1.17099,-0.68988 -0.52242,-0.37944 -1.24868,-1.16677 -1.61385,-1.74924 -0.65353,-1.04264 -0.65866,-1.08208 -0.36071,-2.58486 0.39928,-2.01357 0.55166,-2.37716 1.08109,-2.5616 0.15824,-0.0551 0.29821,-0.0764 0.41701,-0.0667 z m -26.76478,6.50554 h 5.3e-4 c 0.56171,-0.008 0.81545,0.61247 0.81545,1.94097 0,1.12363 0.16539,1.1523 -0.72864,1.48932 -0.89405,0.33698 -2.59884,0.15065 -3.97597,0.28215 -1.37716,0.13147 -5.00023,0.0605 -5.00023,0.0605 0,0 1.78779,-2.4143 3.64681,-2.87838 0.90466,-0.2258 4.44185,-0.63847 4.80282,-0.78909 0.1629,-0.068 0.30967,-0.10347 0.43923,-0.10543 z m 22.39399,5.51388 c 0.76049,0 3.51766,1.75944 4.73718,3.02307 0.78153,0.8098 1.45616,1.55906 1.49863,1.66502 0.0926,0.22858 -0.28435,0.22927 -3.283,-0.0755 -0.30105,-0.0347 -0.60426,-0.0691 -0.89866,-0.10697 -1.24619,-0.16032 -2.42874,-0.29185 -3.25665,-0.37311 -0.85715,-0.12522 -1.45148,-0.23844 -1.51517,-0.30282 -0.12694,-0.12879 0.0365,-0.43634 0.39791,-0.74827 0.33735,-0.29133 0.95261,-1.10384 1.36687,-1.80558 0.41425,-0.70171 0.84304,-1.27589 0.95289,-1.27589 z m 43.83143,0.25683 c 0.0823,0 1.06638,0.68596 2.18591,1.52446 2.84901,2.13371 8.03574,5.79715 8.91058,6.29367 0.53446,0.30341 0.77754,0.64145 0.73949,0.86816 -0.17825,1.8e-4 -0.38251,-0.0127 -0.61754,-0.0403 -0.27228,-0.0319 -0.82113,-0.0695 -1.46399,-0.10801 -0.073,-0.0289 -0.15063,-0.0583 -0.21341,-0.0868 -0.60553,-0.27479 -0.86064,-0.28292 -1.21905,-0.0372 -0.0277,0.0187 -0.0671,0.0329 -0.10337,0.0486 -0.55081,-0.0254 -1.08352,-0.0539 -1.64176,-0.0729 -1.89177,-0.0639 -4.84156,-0.24744 -6.5541,-0.40773 -1.7126,-0.16031 -3.7932,-0.35615 -4.62455,-0.43459 -1.3603,-0.12841 -1.58866,-0.23533 -2.28203,-1.06609 -0.1401,-0.16782 -0.2653,-0.34523 -0.37878,-0.52038 -0.0496,-0.12429 -0.0865,-0.23659 -0.0868,-0.30903 0,-0.21193 0.64043,-0.89729 1.4247,-1.52238 1.6029,-1.27738 5.69479,-4.12947 5.92471,-4.12947 z m -29.30104,0.0966 c 0.0119,-4e-5 0.026,0.002 0.0424,0.007 v -10e-4 c 0.22815,0.0587 0.87728,0.54006 1.56477,1.17047 0.90382,0.82889 1.57194,1.26019 1.81901,1.17409 0.23725,-0.0826 1.25389,0.49454 2.58847,1.46967 1.92268,1.40483 2.64155,2.12596 2.18694,2.19935 -0.10067,-0.0102 -0.18592,-0.0147 -0.31056,-0.032 -0.0616,-0.008 -0.22284,-0.0223 -0.30335,-0.032 -0.5089,-0.0813 -1.87574,-0.20472 -3.26181,-0.29094 -1.35165,-0.0939 -2.64168,-0.27557 -2.86806,-0.40359 -0.0526,-0.0298 -0.1289,-0.0937 -0.21807,-0.17932 l -0.49297,-0.59945 c -0.45744,-0.55567 -0.93271,-1.30082 -1.05576,-1.65623 -0.24316,-0.702 -0.0553,-2.59136 0.28008,-2.81895 0.007,-0.005 0.0171,-0.007 0.029,-0.007 z"
         style="fill:#1a1a1a;stroke-width:0.26458332"
         inkscape:export-xdpi="96"
         inkscape:export-ydpi="96" />
    </g>
    <g
       id="g4525"
       transform="matrix(-0.88459247,0,0,0.97092,-1972.0624,-134.85522)"
       style="fill:#000000;fill-opacity:1" />
  </g>
</svg>
