<?xml version="1.0" encoding="UTF-8" standalone="no"?>
<!-- Created with Inkscape (http://www.inkscape.org/) -->

<svg
   xmlns:dc="http://purl.org/dc/elements/1.1/"
   xmlns:cc="http://creativecommons.org/ns#"
   xmlns:rdf="http://www.w3.org/1999/02/22-rdf-syntax-ns#"
   xmlns:svg="http://www.w3.org/2000/svg"
   xmlns="http://www.w3.org/2000/svg"
   xmlns:sodipodi="http://sodipodi.sourceforge.net/DTD/sodipodi-0.dtd"
   xmlns:inkscape="http://www.inkscape.org/namespaces/inkscape"
   width="210mm"
   height="297mm"
   viewBox="0 0 210 297"
   version="1.1"
   id="svg8"
   inkscape:version="0.92.1 r15371"
   sodipodi:docname="logo.svg">
  <defs
     id="defs2" />
  <sodipodi:namedview
     id="base"
     pagecolor="#ffffff"
     bordercolor="#666666"
     borderopacity="1.0"
     inkscape:pageopacity="0.0"
     inkscape:pageshadow="2"
     inkscape:zoom="0.35"
     inkscape:cx="-3859.0276"
     inkscape:cy="650.03992"
     inkscape:document-units="mm"
     inkscape:current-layer="layer1"
     showgrid="false"
     showguides="false"
     inkscape:window-width="1920"
     inkscape:window-height="1017"
     inkscape:window-x="-8"
     inkscape:window-y="-8"
     inkscape:window-maximized="1" />
  <metadata
     id="metadata5">
    <rdf:RDF>
      <cc:Work
         rdf:about="">
        <dc:format>image/svg+xml</dc:format>
        <dc:type
           rdf:resource="http://purl.org/dc/dcmitype/StillImage" />
        <dc:title />
      </cc:Work>
    </rdf:RDF>
  </metadata>
  <g
     inkscape:label="Camada 1"
     inkscape:groupmode="layer"
     id="layer1">
    <rect
       style="opacity:1;fill:#ffffff;fill-opacity:1;stroke:#000000;stroke-width:0.05631506;stroke-opacity:1"
       id="rect4604"
       width="194.78043"
       height="128.79173"
       x="-1103.3927"
       y="-693.07043"
       inkscape:export-xdpi="96"
       inkscape:export-ydpi="96" />
    <path
       style="opacity:1;fill:#fadc33;fill-opacity:1;stroke:none;stroke-width:0.91263503;stroke-opacity:1"
       d="m -2189.725,476.07526 c -169.859,-26.50246 -292.1408,45.83847 -419.5602,47.87396 -127.4194,2.03549 -144.7378,-34.95262 -159.2089,-83.16602 v 822.2813 h 1111.4296 V 437.30078 c 0,0 -413.1403,57.42276 -532.6605,38.77448 z"
       transform="scale(0.26458333)"
       id="rect4527"
       inkscape:connector-curvature="0"
       sodipodi:nodetypes="szccccs" />
    <path
       inkscape:export-ydpi="96"
       inkscape:export-xdpi="96"
       inkscape:connector-curvature="0"
       id="path4521"
       d="m 95.83995,384.65505 c -0.7276,-0.0522 -3.40651,-0.22535 -5.95312,-0.38481 -2.54662,-0.15949 -7.13052,-0.57089 -10.18646,-0.91424 -45.5279,-5.11543 -82.63448,-22.21302 -97.90149,-45.11003 -4.50714,-6.75968 -7.27038,-14.90967 -7.27038,-21.44348 0,-1.64161 -7.58108,-55.32215 -26.47653,-187.47682 -19.369,-135.466145 -26.452,-185.638255 -26.3849,-186.896375 0.5156,-9.67063 18.8623,-21.66124 48.38594,-31.6231 30.93205,-10.437064 68.81405,-17.548285 107.00153,-20.086345 20.02748,-1.33109 43.93495,-1.23437 63.5,0.25688 56.0706,4.27373 111.25726,19.649681 136.71478,38.091115 2.98474,2.16215 8.08569,7.27156 9.3145,9.32995 1.33567,2.23742 2.00509,4.2488 2.00509,6.0246 0,0.81244 -10.7827,84.1294 -23.96157,185.148805 -13.17884,101.0194 -23.95926,184.20742 -23.95651,184.86227 0.0106,2.50814 -0.5412,7.12149 -1.16205,9.71481 -1.67846,7.01117 -5.02875,13.11994 -10.98817,20.03541 -4.82378,5.59763 -8.64436,8.84836 -16.31484,13.88139 -7.25543,4.7607 -7.35875,4.82137 -13.04603,7.66104 -20.08466,10.02837 -44.77979,16.2727 -73.42187,18.5652 -3.50265,0.28033 -27.06341,0.56698 -29.89792,0.36373 z M 36.94656,219.43342 c 4.74783,-0.77036 8.36553,-3.19569 10.36642,-6.94973 1.08761,-2.04058 1.34066,-4.67662 0.64887,-6.75942 -0.62929,-1.8946 -2.41767,-4.21188 -4.19559,-5.43637 -0.82744,-0.56988 -1.50443,-1.17512 -1.50443,-1.34498 0,-0.16986 0.93177,-0.91575 2.07059,-1.65751 3.63906,-2.37022 7.07331,-6.21221 8.66953,-9.69883 4.96756,-10.85059 -1.51621,-22.64617 -14.91574,-27.1354 -6.82766,-2.28749 -15.39798,-2.22528 -22.07996,0.16025 -12.22989,4.36618 -18.69682,14.87856 -15.4422,25.10224 0.91176,2.86409 2.29531,5.14133 4.60038,7.57193 4.41332,4.65365 9.91051,7.33107 17.58438,8.56445 1.18025,0.18971 1.24048,0.53986 0.32488,1.88908 -1.67163,2.46329 -1.88271,6.20532 -0.50868,9.01795 1.70087,3.48165 5.49777,5.99789 10.05203,6.66152 2.21353,0.32255 2.4284,0.32329 4.32952,0.0148 z m 33.09652,-71.56059 c 11.8681,-1.78176 26.05462,-7.65988 36.31651,-15.04756 4.12432,-2.96915 35.83269,-19.59732 44.12808,-23.14118 5.50163,-2.35033 11.19932,-2.95982 32.53249,-3.48003 24.07917,-0.58717 28.02136,-1.14382 37.82322,-5.34076 6.33878,-2.714132 17.85885,-9.068169 18.11801,-9.993229 0.0626,-0.223518 2.82675,-19.535768 6.14251,-42.916116 l 6.02866,-42.5097198 -1.0406,-2.60174 c -2.89555,-7.2394102 -8.81264,-17.6727902 -12.16253,-21.4456702 -6.05375,-6.8182 -30.80102,-15.77612 -59.40719,-21.50397 -26.10794,-5.22763 -53.40875,-7.49063 -80.34653,-6.66004 -18.11441,0.55854 -30.52616,1.61472 -47.19579,4.01614 -23.78235,3.42608 -48.64856,9.53154 -61.37017,15.06837 -7.20204,3.13454 -15.41398,12.0051 -21.51651,23.2422 l -1.10537,2.0354 0.004,5.6885402 c 0.002,3.1287 0.15831,7.2958898 0.34736,9.2604198 0.9064,9.4188 2.4302,21.7491 4.29974,34.792707 2.4023,16.760635 7.7849,50.520027 8.56359,53.710418 0.21311,0.87312 0.45256,1.90631 0.53212,2.29596 0.12334,0.60411 0.46455,0.83184 2.31644,1.546 3.99442,1.54041 8.72153,2.61287 13.86009,3.1445 2.93853,0.30402 4.88187,0.97089 7.39646,2.53817 3.53535,2.20349 6.23173,4.63012 17.05244,15.34649 5.89359,5.83678 12.08484,11.72726 13.75833,13.08998 7.45357,6.06942 12.57659,8.378 20.50521,9.24022 3.17619,0.34541 10.96975,0.14246 14.41979,-0.3755 z"
       style="fill:#e3dea0;stroke-width:0.26458332" />
    <path
       inkscape:export-ydpi="96"
       inkscape:export-xdpi="96"
       inkscape:connector-curvature="0"
       id="path4519"
       d="m 95.83995,384.65505 c -0.7276,-0.0522 -3.40651,-0.22535 -5.95312,-0.38481 -2.54662,-0.15949 -7.13052,-0.57089 -10.18646,-0.91424 -45.5279,-5.11543 -82.63448,-22.21302 -97.90149,-45.11003 -4.50714,-6.75968 -7.27038,-14.90967 -7.27038,-21.44348 0,-1.64161 -7.58108,-55.32215 -26.47653,-187.47682 -19.369,-135.466145 -26.452,-185.638255 -26.3849,-186.896375 0.5156,-9.67063 18.8623,-21.66124 48.38594,-31.6231 30.93205,-10.437064 68.81405,-17.548285 107.00153,-20.086345 20.02748,-1.33109 43.93495,-1.23437 63.5,0.25688 56.0706,4.27373 111.25726,19.649681 136.71478,38.091115 2.98474,2.16215 8.08569,7.27156 9.3145,9.32995 1.33567,2.23742 2.00509,4.2488 2.00509,6.0246 0,0.81244 -10.7827,84.1294 -23.96157,185.148805 -13.17884,101.0194 -23.95926,184.20742 -23.95651,184.86227 0.0106,2.50814 -0.5412,7.12149 -1.16205,9.71481 -1.67846,7.01117 -5.02875,13.11994 -10.98817,20.03541 -4.82378,5.59763 -8.64436,8.84836 -16.31484,13.88139 -7.25543,4.7607 -7.35875,4.82137 -13.04603,7.66104 -20.08466,10.02837 -44.77979,16.2727 -73.42187,18.5652 -3.50265,0.28033 -27.06341,0.56698 -29.89792,0.36373 z m -76.59687,-57.0837 c 0,-0.0502 -0.26789,-0.31811 -0.59531,-0.59531 l -0.59532,-0.50403 0.50403,0.59531 c 0.47367,0.55944 0.6866,0.71575 0.6866,0.50403 z m 193.24508,-21.33997 c 1.32966,-9.50322 12.5014,-98.08744 13.51393,-107.15625 0.36555,-3.27422 1.02981,-9.28687 1.47611,-13.36146 0.4463,-4.07458 3.22665,-26.81552 6.17853,-50.53542 2.9519,-23.71989 5.3703,-43.484261 5.37424,-43.920824 0.004,-0.436562 2.72838,-19.923123 6.05438,-43.303471 l 6.04721,-42.5097198 -1.0406,-2.60174 c -2.89555,-7.2394102 -8.81264,-17.6727902 -12.16253,-21.4456702 -6.05375,-6.8182 -30.80102,-15.77612 -59.40719,-21.50397 -26.10794,-5.22763 -53.40875,-7.49063 -80.34653,-6.66004 -18.11441,0.55854 -30.52616,1.61472 -47.19579,4.01614 -23.78235,3.42608 -48.64856,9.53154 -61.37017,15.06837 -7.20204,3.13454 -15.41398,12.0051 -21.51651,23.2422 l -1.10537,2.0354 0.004,5.6885402 c 0.004,5.80323 0.19079,8.3936098 1.34719,18.6531298 1.80064,15.97514 5.40535,40.696983 9.8656,67.660198 0.98158,5.933818 1.68717,10.788757 1.56799,10.788757 -0.11919,0 -0.2167,0.35992 -0.2167,0.79981 0,0.4399 4.87647,36.84325 10.83661,80.89635 10.36193,76.58812 12.67279,93.99535 14.16302,106.68717 0.96658,8.23206 0.97577,8.29673 1.2402,8.73125 0.16691,0.2743 0.20014,0.15169 0.10757,-0.39687 -0.0737,-0.43657 -0.26456,-1.98438 -0.4242,-3.43959 -1.34533,-12.2638 -4.99711,-39.67146 -22.62655,-169.81909 -1.3766,-10.16259 -2.5029,-18.76485 -2.5029,-19.11615 0,-0.66168 0.24056,-0.80693 0.67469,-0.40737 0.52126,0.47975 4.74407,1.92418 7.8244,2.67637 1.75925,0.4296 4.82314,0.96667 6.80863,1.1935 4.125,0.47126 4.8082,0.65043 7.18186,1.88348 3.89096,2.02124 9.19215,6.66809 18.14053,15.90139 13.53206,13.96293 21.23408,19.75424 28.69072,21.57316 3.71408,0.90599 5.97946,1.1167 11.90625,1.10747 6.241,-0.01 9.68734,-0.40782 14.93346,-1.72498 10.29363,-2.58445 21.64683,-7.84364 30.27722,-14.02544 4.30654,-3.0847 37.94043,-20.61233 44.84311,-23.36909 4.79542,-1.91518 11.41518,-2.522 33.50663,-3.07147 21.73806,-0.54069 26.01161,-1.17631 35.84871,-5.33187 4.36742,-1.844968 10.01427,-4.746124 14.30488,-7.349375 1.69196,-1.026565 3.16164,-1.813748 3.26591,-1.749296 0.1043,0.06446 -2.10179,18.370581 -4.90238,40.680261 -5.09413,40.57973 -6.79783,54.71533 -7.79084,64.64017 -0.91387,9.134 -12.71577,102.22936 -14.40619,113.63854 -0.0924,0.62384 -0.0583,0.79653 0.10456,0.52917 0.13301,-0.21828 0.54999,-2.59953 0.92668,-5.29167 z M 39.36075,219.22577 c 4.98485,-1.71505 8.32368,-5.07817 9.25542,-9.32283 0.3647,-1.66145 0.13844,-3.21903 -0.77831,-5.35771 -0.59098,-1.37871 -2.77335,-3.84357 -4.16407,-4.70307 -0.48554,-0.30009 -0.88279,-0.68834 -0.88279,-0.86278 0,-0.17444 0.90462,-0.90887 2.01027,-1.63206 2.53649,-1.65909 6.04723,-5.2819 7.43955,-7.67704 1.79463,-3.08719 2.50655,-5.3989 2.6561,-8.62478 0.16208,-3.49594 -0.34529,-6.01523 -1.79267,-8.90149 -3.19643,-6.37407 -10.17437,-11.21767 -18.79748,-13.0479 -3.92452,-0.83296 -10.10159,-0.83859 -13.95305,-0.0127 -12.53767,2.68843 -20.9452,11.2539 -20.9452,21.33862 0,10.05136 8.57024,18.78777 20.8941,21.2992 1.50931,0.30758 2.83876,0.61767 2.95433,0.68911 0.11557,0.0714 -0.0769,0.57062 -0.42766,1.10931 -1.72743,2.65288 -1.94901,6.52746 -0.53731,9.3957 1.10841,2.25203 3.74104,4.63841 6.28572,5.69775 1.10122,0.45845 2.63635,0.94689 3.4114,1.08543 1.98495,0.35481 5.64938,0.1198 7.37165,-0.47273 z"
       style="fill:#b3cce1;stroke-width:0.26458332" />
    <path
       inkscape:export-ydpi="96"
       inkscape:export-xdpi="96"
       inkscape:connector-curvature="0"
       id="path4517"
       d="M 95.0462,348.57313 C 68.89171,347.41523 45.11973,341.3586 23.65392,330.38377 20.11601,328.57494 18.33995,326.98302 15.25831,322.8587 13.0377,319.88674 9.31063,314.11234 8.19789,311.91992 7.6529,310.84614 6.72118,304.58964 5.47915,293.66367 3.76068,278.54649 0.9315,257.31305 -17.14777,123.84458 c -1.3766,-10.16259 -2.5029,-18.76486 -2.5029,-19.11615 0,-0.66168 0.24056,-0.80693 0.67469,-0.40737 0.52126,0.47975 4.74407,1.92418 7.8244,2.67637 1.75925,0.4296 4.82314,0.96667 6.80863,1.1935 4.125,0.47126 4.8082,0.65043 7.18186,1.88348 3.89096,2.02124 9.19215,6.66809 18.14053,15.90139 13.53206,13.96293 21.23408,19.75424 28.69072,21.57316 3.71408,0.90599 5.97946,1.1167 11.90625,1.10747 6.241,-0.01 9.68734,-0.40782 14.93346,-1.72498 10.29363,-2.58445 21.64683,-7.84364 30.27722,-14.02544 4.30654,-3.0847 37.94043,-20.61233 44.84311,-23.3691 4.79542,-1.91517 11.41518,-2.52199 33.50663,-3.07146 21.73806,-0.54069 26.01161,-1.17631 35.84871,-5.33187 4.36742,-1.844968 10.01427,-4.746124 14.30488,-7.349375 1.69196,-1.026565 3.16164,-1.813748 3.26591,-1.749296 0.1043,0.06446 -2.10179,18.370581 -4.90238,40.680261 -5.09413,40.57973 -6.79783,54.71533 -7.79084,64.64017 -0.75745,7.57058 -10.27496,83.06385 -13.07476,103.7096 -1.27979,9.43721 -1.55024,10.96381 -2.10799,11.89892 -0.35189,0.59 -2.46292,3.8707 -4.69116,7.29044 l -4.05133,6.21771 -5.55625,2.79 c -18.84464,9.46264 -43.40164,16.04333 -68.52708,18.36362 -10.31289,0.95237 -23.86053,1.34363 -32.80834,0.9475 z M 39.36075,219.22577 c 4.98485,-1.71505 8.32368,-5.07817 9.25542,-9.32283 0.3647,-1.66145 0.13844,-3.21903 -0.77831,-5.35771 -0.59098,-1.37871 -2.77335,-3.84357 -4.16407,-4.70307 -0.48554,-0.30009 -0.88279,-0.68834 -0.88279,-0.86278 0,-0.17444 0.90462,-0.90887 2.01027,-1.63206 2.53649,-1.65909 6.04723,-5.2819 7.43955,-7.67704 1.79463,-3.08719 2.50655,-5.3989 2.6561,-8.62478 0.16208,-3.49594 -0.34529,-6.01523 -1.79267,-8.90149 -3.19643,-6.37407 -10.17437,-11.21767 -18.79748,-13.0479 -3.92452,-0.83296 -10.10159,-0.83859 -13.95305,-0.0127 -12.53767,2.68843 -20.9452,11.2539 -20.9452,21.33862 0,10.05136 8.57024,18.78777 20.8941,21.2992 1.50931,0.30758 2.83876,0.61767 2.95433,0.68911 0.11557,0.0714 -0.0769,0.57062 -0.42766,1.10931 -1.72743,2.65288 -1.94901,6.52746 -0.53731,9.3957 1.10841,2.25203 3.74104,4.63841 6.28572,5.69775 1.10122,0.45845 2.63635,0.94689 3.4114,1.08543 1.98495,0.35481 5.64938,0.1198 7.37165,-0.47273 z"
       style="fill:#f2dd5b;stroke-width:0.26458332" />
    <path
       inkscape:export-ydpi="96"
       inkscape:export-xdpi="96"
       inkscape:connector-curvature="0"
       id="path4515"
       d="m 95.0462,348.57313 c -26.15449,-1.1579 -49.92647,-7.21453 -71.39228,-18.18936 -3.53791,-1.80883 -5.31397,-3.40075 -8.39561,-7.52507 -2.22061,-2.97196 -5.94768,-8.74636 -7.06042,-10.93878 -0.60334,-1.18874 -2.34357,-13.14831 -2.09263,-14.38137 0.14803,-0.72739 -2.56397,-23.10339 -4.84172,-39.9478 -0.72141,-5.335 -5.66743,-41.89177 -10.99113,-81.23724 -5.32371,-39.3455 -9.63857,-71.57817 -9.58857,-71.62817 0.05,-0.05 0.97746,0.27196 2.06101,0.71546 2.60506,1.06625 8.23014,2.48911 11.36281,2.87422 5.58825,0.68697 5.91742,0.76456 8.33438,1.96456 3.7826,1.87804 7.37524,4.98314 17.4625,15.09276 11.85374,11.88002 15.10234,14.77466 20.6338,18.38564 6.25341,4.08227 12.47804,5.52932 22.49328,5.22904 5.46597,-0.16388 8.59583,-0.57089 13.49375,-1.75473 10.06371,-2.43243 19.6592,-6.83653 30.03021,-13.78313 6.04006,-4.0457 39.93604,-21.71678 45.52436,-23.73334 4.97019,-1.7935 10.34405,-2.2984 30.29669,-2.84649 22.09658,-0.60698 26.95169,-1.09563 33.41109,-3.36266 6.08134,-2.13434 13.51481,-5.72545 19.98387,-9.654219 1.29159,-0.784394 2.40337,-1.371115 2.47066,-1.303827 0.0673,0.06729 -2.32908,19.687736 -5.3253,43.600986 -2.99619,23.91326 -6.04689,48.83646 -6.77934,55.3849 -0.73242,6.54843 -2.45425,20.83593 -3.82624,31.75 -4.19632,33.38081 -8.55642,67.78384 -9.80821,77.39062 -0.65418,5.02047 -1.22309,9.67854 -1.26423,10.35127 -0.0645,1.05349 -0.51007,1.89738 -3.21332,6.08542 -1.72614,2.67425 -3.83444,5.90341 -4.68511,7.17592 l -1.54662,2.31368 -5.88113,2.89626 c -19.21698,9.46372 -43.08799,15.822 -68.05821,18.12795 -10.31289,0.95237 -23.86053,1.34363 -32.80834,0.9475 z M 39.91222,219.38889 c 3.45135,-1.26879 5.71714,-2.97672 7.40911,-5.58499 2.11122,-3.25456 2.30716,-6.19344 0.63932,-9.58913 -0.87333,-1.77811 -2.68955,-3.82252 -4.34112,-4.88654 l -0.62668,-0.40375 1.59101,-0.98203 c 2.089,-1.28939 5.35816,-4.36234 6.79031,-6.38273 4.93214,-6.95796 5.30631,-14.41537 1.06473,-21.22072 -4.93082,-7.91117 -15.84438,-12.81173 -27.1104,-12.17348 -14.86544,0.84217 -26.19375,10.46768 -26.19375,22.25649 0,10.31134 8.90799,19.30447 21.4849,21.69027 1.18699,0.22516 2.19583,0.44707 2.24187,0.49311 0.046,0.046 -0.27223,0.74083 -0.70726,1.54403 -2.08402,3.84773 -1.16645,8.87079 2.20246,12.05698 1.59724,1.51058 4.47945,3.06901 6.73662,3.64247 2.2938,0.58279 6.59217,0.35858 8.81888,-0.45998 z"
       style="fill:#fadc33;stroke-width:0.26458332" />
    <path
       inkscape:export-ydpi="96"
       inkscape:export-xdpi="96"
       inkscape:connector-curvature="0"
       id="path4513"
       d="m 190.21078,210.28927 c -3.63532,-0.30636 -6.55019,-0.7238 -9.26042,-1.32615 -3.27937,-0.72884 -12.33861,-3.61389 -13.103,-4.17282 -0.4422,-0.32335 -0.42212,-0.58163 0.38453,-4.94718 1.11004,-6.00744 1.0509,-5.79668 1.6265,-5.79668 0.27078,0 2.25217,0.63805 4.40309,1.41788 7.56072,2.74116 12.03926,3.80677 17.0261,4.05109 2.30479,0.11292 3.7668,0.059 4.7625,-0.17569 2.95815,-0.69725 5.20237,-2.30605 6.37871,-4.57271 0.72541,-1.39774 0.98846,-5.39393 0.47564,-7.22559 -0.45323,-1.61872 -2.28645,-3.60828 -4.12713,-4.47907 -0.80436,-0.38053 -4.69799,-1.46675 -8.65251,-2.41382 -11.49254,-2.75238 -13.93333,-3.77638 -17.53686,-7.3573 -3.74681,-3.72327 -5.04312,-7.47673 -4.7895,-13.86798 0.16021,-4.03756 0.56935,-5.87123 1.92696,-8.63618 1.8155,-3.6975 4.66506,-6.45676 8.52663,-8.2564 3.23231,-1.50641 5.49195,-1.97945 10.15721,-2.12635 4.67498,-0.1472 7.87617,0.15169 12.38488,1.15636 3.65948,0.81544 13.31392,3.9284 13.72698,4.42611 0.21966,0.26469 0.061,1.51926 -0.62724,4.95855 -1.18428,5.91849 -1.15229,5.79485 -1.49911,5.79485 -0.16253,0 -2.38307,-0.78253 -4.93453,-1.73894 -10.91343,-4.09091 -19.23095,-5.10286 -23.67672,-2.8806 -2.99656,1.49783 -4.19258,3.47115 -4.36873,7.20796 -0.14499,3.07586 0.22262,4.45612 1.60517,6.02679 1.58845,1.80456 3.37211,2.55336 9.73822,4.08813 3.1187,0.75189 6.76042,1.64822 8.09276,1.99186 8.61822,2.22282 13.23901,5.95601 15.215,12.2923 0.54353,1.74295 0.61883,2.51553 0.61883,6.35 0,3.83678 -0.0751,4.60603 -0.61963,6.35 -2.19493,7.02951 -7.61619,11.80561 -15.12308,13.32344 -2.08941,0.42246 -6.71843,0.70776 -8.73125,0.53814 z m -51.09519,-0.64958 c -2.00255,-0.21476 -7.69378,-1.40182 -8.87608,-1.85132 -0.34007,-0.1293 -0.61434,-0.44637 -0.60947,-0.70463 0.0273,-1.45064 1.25912,-9.11943 1.5042,-9.36451 0.21146,-0.21145 1.1102,-0.0921 3.29152,0.43712 5.65247,1.37139 9.51045,0.94353 11.12874,-1.2342 1.45176,-1.95361 1.38676,-0.71049 1.5292,-29.24596 0.0728,-14.5764 0.23151,-26.6017 0.35277,-26.72291 0.12127,-0.12121 2.71523,-0.22038 5.76434,-0.22038 4.63727,0 5.58588,0.0649 5.80084,0.39688 0.16321,0.25206 0.22981,10.19561 0.18252,27.25208 -0.0744,26.84037 -0.0748,26.85637 -0.66331,28.97188 -2.15986,7.7638 -7.25809,11.85941 -15.40591,12.3762 -1.09141,0.0692 -2.89112,0.0286 -3.99936,-0.0902 z"
       style="fill:#1a1a1a;stroke-width:0.26458332"
       sodipodi:nodetypes="csccscscccccccsccsccscccccccscscccccccccscscccc" />
    <path
       inkscape:export-ydpi="96"
       inkscape:export-xdpi="96"
       style="fill:#1a1a1a;stroke-width:0.26458332"
       d="m 86.99416,171.70957 v 10e-4 c -0.0302,0.006 -0.0605,0.027 -0.0915,0.0558 -0.20831,-0.0102 -0.35957,0.0523 -0.48731,0.19431 -0.16108,0.17899 -0.91787,3.02053 -1.68207,6.31434 -0.92686,3.99555 -1.54466,6.17563 -1.8557,6.55051 -0.27988,0.33728 -0.58002,1.28116 -0.75137,2.36057 -0.15703,0.98901 -0.53856,2.69006 -0.84801,3.78013 -0.30951,1.09006 -0.56275,2.55013 -0.56275,3.24529 0,0.69514 -0.14777,1.82619 -0.32866,2.51354 -0.18082,0.68734 -0.45344,2.00132 -0.60463,2.91972 -0.27371,1.66154 -1.87624,9.07859 -2.91404,13.48703 -0.56322,2.39239 -1.54845,6.8504 -3.17963,14.38568 -0.51996,2.40195 -1.30693,5.87024 -1.74977,7.70702 -0.44283,1.83676 -1.17753,5.01551 -1.63245,7.06416 -0.79222,3.568 -1.15795,4.58384 -1.99213,4.25917 -0.10731,-0.0642 -0.21063,-0.1589 -0.30697,-0.28628 -0.50948,-0.6738 -1.55175,-1.13947 -2.55177,-1.13947 -0.4544,0 -0.73758,0.0521 -1.11157,0.3266 -0.36449,0.10306 -0.67527,0.26851 -0.87849,0.50074 -1.79735,2.0536 -2.53625,2.77306 -3.76413,3.52847 -0.047,0.026 -0.0912,0.0534 -0.13901,0.0791 -0.91382,0.49074 -1.70648,0.97297 -2.38537,1.45521 -1.68119,1.15119 -2.95601,2.38496 -3.27938,3.23443 -0.42593,1.12004 -0.42394,3.17913 0.005,4.41368 0.18531,0.53267 0.46058,1.65787 0.61185,2.50011 0.15134,0.8422 0.57734,2.35938 0.9467,3.37189 0.96348,2.641 1.27378,4.38086 0.87593,4.91081 -0.11115,0.14805 -0.54684,0.44376 -1.08881,0.76171 -0.10428,0.055 -0.20064,0.10886 -0.308,0.16381 -0.74547,0.38169 -1.3534,0.71809 -1.92805,1.07332 -0.72919,0.43252 -1.48402,0.91598 -2.00454,1.30225 -1.71074,1.26952 -5.11894,4.54903 -6.43112,6.18877 -0.7761,0.96985 -0.86053,1.22918 -0.95033,2.89181 -0.10747,1.98864 -0.19129,2.295 -0.82113,2.32957 -0.23493,-0.17185 -0.43241,-0.17973 -0.68937,-0.0289 -0.2381,0.13986 -1.15115,0.23606 -2.0283,0.21343 -0.003,-3e-5 -0.002,9e-5 -0.004,0 -0.17386,-0.0393 -0.32936,-0.0489 -0.4749,-0.0253 -19.1556,11.22671 -28.40628,16.78026 -32.56442,21.29172 0.4299,2.77316 0.8949,5.27635 1.1534,5.7857 1.11281,2.19242 4.83944,7.9669 7.06004,10.93885 3.0817,4.12433 4.85798,5.7163 8.39586,7.52512 21.46591,10.97484 45.23753,17.03118 71.39204,18.18908 8.94779,0.39613 22.49543,0.005 32.80834,-0.94724 24.97018,-2.30595 48.84136,-8.66436 68.05837,-18.12808 l 5.88129,-2.89645 1.54667,-2.31357 c 0.85072,-1.27251 2.95889,-4.50154 4.68498,-7.17579 2.7033,-4.18804 3.14926,-5.03193 3.21326,-6.08542 0.0202,-0.33126 0.17042,-1.64282 0.39378,-3.47419 -14.76735,-3.26504 -35.55376,-8.30043 -55.86121,-12.93513 -0.15283,-0.11941 -0.25853,-0.12925 -0.40979,0.004 -0.32136,0.0811 -0.63958,0.31991 -0.73689,0.64027 -0.007,0.0213 -0.018,0.039 -0.0279,0.0568 -0.18243,0.0756 -0.37795,0.0747 -0.63251,0.008 -0.12925,-0.0339 -0.21016,-0.0614 -0.308,-0.0909 -0.21698,-0.14438 -0.41124,-0.3435 -0.50332,-0.57258 -0.0456,-0.11345 -0.11271,-0.224 -0.18965,-0.33176 -0.0405,-0.20434 -0.17984,-0.33899 -0.34004,-0.37569 -0.45175,-0.40793 -1.01486,-0.63598 -1.17668,-0.35295 -0.14833,0.2593 -0.68101,0.54639 -1.15496,0.68575 -0.35039,-0.0384 -0.65307,-0.098 -0.77825,-0.18293 -0.0453,-0.0307 -0.0865,-0.0876 -0.12454,-0.15504 -0.004,-0.1077 0.003,-0.22841 0.0362,-0.37465 0.10139,-0.44376 0.06,-0.5916 -0.30334,-0.7059 -0.22953,-0.36452 -0.79817,-0.42412 -1.62005,-0.14728 -0.74932,0.25241 -0.87923,0.19838 -2.16421,-0.8971 -0.752,-0.64127 -2.05258,-1.54013 -2.88922,-1.9973 -2.46185,-1.34508 -3.93925,-2.47877 -6.66988,-5.11648 -1.41598,-1.3678 -3.32013,-3.13308 -4.23127,-3.92276 -1.28577,-1.1144 -1.74901,-1.70098 -2.06862,-2.61947 -0.43982,-1.26401 -1.29501,-2.0586 -3.57497,-3.32228 -0.38622,-0.21416 -0.70856,-0.3591 -0.99322,-0.44804 -0.21805,-0.14469 -0.49012,-0.32126 -0.63458,-0.42219 -0.3579,-0.25016 -0.73033,-0.49391 -1.11416,-0.73691 -0.0917,-0.43389 -0.29853,-0.58459 -0.92551,-0.80925 -1.45886,-0.5228 -2.16138,-1.23479 -3.55793,-3.60547 -1.47193,-2.49873 -3.31346,-4.71784 -4.54906,-5.48028 -0.45054,-0.27798 -1.66251,-1.18864 -2.69235,-2.02313 -1.02987,-0.83453 -2.1354,-1.58973 -2.45721,-1.67845 -0.32182,-0.0888 -1.3221,-0.55925 -2.22314,-1.04645 -1.42057,-0.76805 -1.84674,-0.88051 -3.20548,-0.84285 -1.39321,0.0385 -1.69418,-0.0469 -2.71198,-0.76377 -0.73316,-0.51634 -1.20785,-0.72463 -1.86086,-0.78445 -0.15656,-0.0187 -0.3202,-0.0295 -0.50075,-0.0295 -0.61392,0 -1.1724,-0.10046 -1.2423,-0.22376 -0.0694,-0.12332 -0.008,-1.23162 0.13695,-2.46289 0.27752,-2.35973 0.10728,-4.22753 -0.6749,-7.4042 -0.10676,-0.43345 -0.19077,-0.76243 -0.31832,-1.048 -0.34925,-1.08486 -0.99341,-1.43806 -4.23334,-3.25664 -1.59962,-0.89791 -3.21656,-1.91781 -3.59357,-2.26601 -0.0609,-0.0562 -0.11186,-0.1056 -0.16227,-0.15503 -0.40417,-0.97584 -0.30252,-2.8572 0.28422,-3.40858 0.37579,-0.35319 0.46818,-0.75781 0.46818,-2.05259 0,-0.90386 -0.10343,-1.61282 -0.23461,-1.61282 -0.0397,0 -0.0721,-0.008 -0.10128,-0.0207 -0.042,-0.11503 -0.0856,-0.21178 -0.13076,-0.2651 0.007,-0.2413 0.17934,-0.57271 0.46665,-0.74155 0.25744,-0.15121 0.46821,-0.44467 0.46821,-0.65164 0,-0.20695 -0.21077,-0.37569 -0.46821,-0.37569 -0.12245,0 -0.22741,0.0337 -0.30438,0.007 -0.0239,-0.0225 -0.0505,-0.0471 -0.0806,-0.0729 -0.21875,-0.44396 0.29697,-3.05911 2.9218,-17.14624 0.64508,-3.4616 1.29362,-6.87193 1.44023,-7.57835 0.14674,-0.70648 0.5212,-2.72927 0.83198,-4.49533 0.31073,-1.76612 0.93956,-5.17642 1.39785,-7.57835 1.91489,-10.03594 3.1333,-16.91345 3.02927,-17.09818 -0.003,-0.003 -0.0124,-0.007 -0.0124,-0.01 -0.0114,-0.15401 -0.0805,-0.30488 -0.19635,-0.38499 -0.52263,-0.36048 -10.81889,-3.70916 -11.17505,-3.6344 z m -0.15242,69.5601 h 5e-4 0.004 c 0.10899,0 0.21627,0.0811 0.3111,0.2496 0.08,0.14195 0.76197,0.71767 1.51567,1.2795 0.75377,0.5618 1.83644,1.45708 2.40604,1.98954 0.56959,0.53249 1.32403,1.19897 1.6769,1.48156 l 0.64132,0.51367 -0.30284,3.14761 c -0.31861,3.30508 -0.34941,3.36632 -1.47537,2.89647 -0.4581,-0.19121 -0.60047,-0.43139 -0.60047,-1.01286 0,-0.41903 -0.10909,-0.83543 -0.24183,-0.92553 -0.13287,-0.0901 -0.46183,-0.67877 -0.73123,-1.30793 -0.11422,-0.26671 -0.22307,-0.48249 -0.33485,-0.67334 -0.3175,-0.65217 -0.92464,-1.02351 -1.87638,-1.14774 -0.0555,-0.0114 -0.103,-0.0243 -0.16227,-0.0351 l -0.45114,-0.0837 c -0.22788,-0.0676 -0.40401,-0.1642 -0.53898,-0.30644 l -0.0631,-1.95751 c -0.0378,-1.19037 -0.17124,-2.30107 -0.29713,-2.46755 -0.15364,-0.19742 -0.15216,-0.53639 0,-0.97564 0.15082,-0.43517 0.33886,-0.66374 0.52039,-0.66456 z m -2.86081,14.91071 c 0.0204,-0.003 0.0423,5e-5 0.0651,0.004 0.10949,0.0254 0.24739,0.14045 0.40566,0.34984 2.35868,0.63885 0.51488,1.02787 -0.48731,0.96274 -0.2033,-0.0131 -0.33694,-0.25441 -0.33694,-0.64234 0,-0.39459 0.21087,-0.65631 0.35348,-0.67438 z m 14.30816,8.46512 c 0.30419,0.0219 0.73779,0.21267 1.37769,0.47955 l 4.35634,3.99201 c 1.22311,1.50491 2.21686,2.46443 3.0091,2.90421 0.6508,0.36116 1.66608,0.92401 2.25621,1.25057 0.5901,0.32654 1.94331,0.86854 3.00704,1.20562 1.88251,0.59651 1.96078,0.65441 2.93677,2.13061 0.55155,0.83424 1.33194,1.93518 1.73323,2.44688 0.40125,0.51167 0.72914,1.07465 0.72914,1.25161 0,0.17693 -0.50064,0.79464 -1.11207,1.37252 -2.53486,2.39561 -5.43615,5.68981 -5.94743,6.75205 -0.32385,0.67268 -0.68771,1.10698 -0.89141,1.06453 -0.18923,-0.0394 -0.80881,-0.80456 -1.37771,-1.69964 -0.28128,-0.44259 -0.70501,-1.00886 -1.1901,-1.62161 -1.19536,-1.57346 -2.86901,-3.44291 -4.56044,-5.09374 -0.78359,-0.78755 -1.53143,-1.49612 -2.16318,-2.03088 -1.05169,-0.89024 -2.02181,-1.92513 -2.15595,-2.29961 -0.13409,-0.37447 -0.47046,-1.76474 -0.74724,-3.08921 -0.47538,-2.27438 -0.48646,-2.59153 -0.20463,-5.71542 0.23276,-2.57913 0.27525,-3.34861 0.94464,-3.30005 z m -13.39299,7.75353 c 0.35639,0.0277 0.52067,0.33181 0.40618,0.83251 -0.0919,0.40174 0.0409,0.7509 0.4403,1.16271 0.36179,0.37302 0.61333,0.97567 0.68678,1.64538 0.28199,2.57102 0.32237,4.01164 0.11419,4.01164 -0.12216,0 -0.64862,-0.31041 -1.17099,-0.68988 -0.52242,-0.37944 -1.24868,-1.16677 -1.61385,-1.74924 -0.65353,-1.04264 -0.65866,-1.08208 -0.36071,-2.58486 0.39928,-2.01357 0.55166,-2.37716 1.08109,-2.5616 0.15824,-0.0551 0.29821,-0.0764 0.41701,-0.0667 z m -26.76478,6.50554 h 5.3e-4 c 0.56171,-0.008 0.81545,0.61247 0.81545,1.94097 0,1.12363 0.16539,1.1523 -0.72864,1.48932 -0.89405,0.33698 -2.59884,0.15065 -3.97597,0.28215 -1.37716,0.13147 -5.00023,0.0605 -5.00023,0.0605 0,0 1.78779,-2.4143 3.64681,-2.87838 0.90466,-0.2258 4.44185,-0.63847 4.80282,-0.78909 0.1629,-0.068 0.30967,-0.10347 0.43923,-0.10543 z m 22.39399,5.51388 c 0.76049,0 3.51766,1.75944 4.73718,3.02307 0.78153,0.8098 1.45616,1.55906 1.49863,1.66502 0.0926,0.22858 -0.28435,0.22927 -3.283,-0.0755 -0.30105,-0.0347 -0.60426,-0.0691 -0.89866,-0.10697 -1.24619,-0.16032 -2.42874,-0.29185 -3.25665,-0.37311 -0.85715,-0.12522 -1.45148,-0.23844 -1.51517,-0.30282 -0.12694,-0.12879 0.0365,-0.43634 0.39791,-0.74827 0.33735,-0.29133 0.95261,-1.10384 1.36687,-1.80558 0.41425,-0.70171 0.84304,-1.27589 0.95289,-1.27589 z m 43.83143,0.25683 c 0.0823,0 1.06638,0.68596 2.18591,1.52446 2.84901,2.13371 8.03574,5.79715 8.91058,6.29367 0.53446,0.30341 0.77754,0.64145 0.73949,0.86816 -0.17825,1.8e-4 -0.38251,-0.0127 -0.61754,-0.0403 -0.27228,-0.0319 -0.82113,-0.0695 -1.46399,-0.10801 -0.073,-0.0289 -0.15063,-0.0583 -0.21341,-0.0868 -0.60553,-0.27479 -0.86064,-0.28292 -1.21905,-0.0372 -0.0277,0.0187 -0.0671,0.0329 -0.10337,0.0486 -0.55081,-0.0254 -1.08352,-0.0539 -1.64176,-0.0729 -1.89177,-0.0639 -4.84156,-0.24744 -6.5541,-0.40773 -1.7126,-0.16031 -3.7932,-0.35615 -4.62455,-0.43459 -1.3603,-0.12841 -1.58866,-0.23533 -2.28203,-1.06609 -0.1401,-0.16782 -0.2653,-0.34523 -0.37878,-0.52038 -0.0496,-0.12429 -0.0865,-0.23659 -0.0868,-0.30903 0,-0.21193 0.64043,-0.89729 1.4247,-1.52238 1.6029,-1.27738 5.69479,-4.12947 5.92471,-4.12947 z m -29.30104,0.0966 c 0.0119,-4e-5 0.026,0.002 0.0424,0.007 v -0.001 c 0.22815,0.0587 0.87728,0.54006 1.56477,1.17047 0.90382,0.82889 1.57194,1.26019 1.81901,1.17409 0.23725,-0.0826 1.25389,0.49454 2.58847,1.46967 1.92268,1.40483 2.64155,2.12596 2.18694,2.19935 -0.10067,-0.0102 -0.18592,-0.0147 -0.31056,-0.032 -0.0616,-0.008 -0.22284,-0.0223 -0.30335,-0.032 -0.5089,-0.0813 -1.87574,-0.20472 -3.26181,-0.29094 -1.35165,-0.0939 -2.64168,-0.27557 -2.86806,-0.40359 -0.0526,-0.0298 -0.1289,-0.0937 -0.21807,-0.17932 l -0.49297,-0.59945 c -0.45744,-0.55567 -0.93271,-1.30082 -1.05576,-1.65623 -0.24316,-0.702 -0.0553,-2.59136 0.28008,-2.81895 0.007,-0.005 0.0171,-0.007 0.029,-0.007 z"
       id="path4515-1"
       inkscape:connector-curvature="0" />
    <g
       id="g4525"
       transform="matrix(-0.88459247,0,0,0.97092,-1972.0624,-134.85522)"
       style="fill:#000000;fill-opacity:1" />
    <path
       style="opacity:1;fill:#ffffff;fill-opacity:1;stroke:none;stroke-width:0.34758297;stroke-opacity:1"
       d="m -668.94282,183.41533 c -0.69998,-0.003 -1.40325,0.0154 -2.10736,0.0553 -14.8655,0.84217 -26.19374,10.46771 -26.19374,22.25653 0,10.31134 8.90809,19.30486 21.48498,21.69066 1.187,0.22516 2.19615,0.44699 2.24224,0.49299 0.046,0.046 -0.27244,0.74088 -0.70744,1.54409 -2.08399,3.84773 -1.16645,8.87043 2.20244,12.05663 1.59721,1.51057 4.47937,3.06921 6.73653,3.64267 2.29381,0.58279 6.59241,0.35864 8.81912,-0.45992 3.4513,-1.26878 5.71685,-2.97692 7.40884,-5.58518 2.11121,-3.25456 2.30703,-6.19339 0.63923,-9.58908 -0.87329,-1.77811 -2.6892,-3.82251 -4.34081,-4.88653 l -0.62685,-0.40359 1.59113,-0.98237 c 2.08901,-1.28939 5.35818,-4.36216 6.79029,-6.38255 4.9322,-6.95797 5.30603,-14.41559 1.06452,-21.22093 -4.62272,-7.41673 -14.50316,-12.18721 -25.00312,-12.22871 z"
       id="path4529"
       inkscape:connector-curvature="0"
       sodipodi:nodetypes="ccsccccccccccccccc" />
    <path
       inkscape:export-ydpi="96"
       inkscape:export-xdpi="96"
       inkscape:connector-curvature="0"
       id="path4513-3"
       d="m -506.16771,235.5947 c -3.63532,-0.30637 -6.55019,-0.72381 -9.26042,-1.32615 -3.27937,-0.72885 -12.33861,-3.6139 -13.103,-4.17282 -0.4422,-0.32335 -0.42212,-0.58164 0.38453,-4.94719 1.11004,-6.00744 1.0509,-5.79668 1.6265,-5.79668 0.27078,0 2.25217,0.63805 4.40309,1.41788 7.56072,2.74116 12.03926,3.80677 17.0261,4.05109 2.30479,0.11292 3.7668,0.059 4.7625,-0.17569 2.95815,-0.69725 5.20237,-2.30605 6.37871,-4.5727 0.72541,-1.39775 0.98846,-5.39393 0.47564,-7.22559 -0.45323,-1.61872 -2.28645,-3.60828 -4.12713,-4.47907 -0.80436,-0.38053 -4.69799,-1.46675 -8.65251,-2.41382 -11.49254,-2.75238 -13.93333,-3.77638 -17.53686,-7.3573 -3.74681,-3.72327 -5.04312,-7.47673 -4.7895,-13.86798 0.16021,-4.03756 0.56935,-5.87123 1.92696,-8.63618 1.8155,-3.6975 4.66506,-6.45676 8.52663,-8.2564 3.23231,-1.50641 5.49195,-1.97945 10.15721,-2.12635 4.67498,-0.1472 7.87617,0.15169 12.38488,1.15636 3.65948,0.81544 13.31392,3.9284 13.72698,4.42611 0.21966,0.26469 0.061,1.51926 -0.62724,4.95855 -1.18428,5.91849 -1.15229,5.79485 -1.49911,5.79485 -0.16253,0 -2.38307,-0.78253 -4.93453,-1.73894 -10.91343,-4.09091 -19.23095,-5.10286 -23.67672,-2.8806 -2.99656,1.49783 -4.19258,3.47115 -4.36873,7.20796 -0.14499,3.07586 0.22262,4.45612 1.60517,6.02679 1.58845,1.80456 3.37211,2.55336 9.73822,4.08813 3.1187,0.75189 6.76042,1.64822 8.09276,1.99186 8.61822,2.22282 13.23901,5.95601 15.215,12.2923 0.54353,1.74295 0.61883,2.51553 0.61883,6.35 0,3.83677 -0.0751,4.60602 -0.61963,6.34999 -2.19493,7.02951 -7.61619,11.80561 -15.12308,13.32344 -2.08941,0.42246 -6.71843,0.70776 -8.73125,0.53815 z m -51.09519,-0.64959 c -2.00255,-0.21476 -7.69378,-1.40182 -8.87608,-1.85131 -0.34007,-0.12931 -0.61434,-0.44637 -0.60947,-0.70463 0.0273,-1.45065 1.25912,-9.11944 1.5042,-9.36452 0.21146,-0.21145 1.1102,-0.0921 3.29152,0.43712 5.65247,1.3714 9.51045,0.94353 11.12874,-1.23419 1.45176,-1.95362 1.38676,-0.7105 1.5292,-29.24596 0.0728,-14.5764 0.23151,-26.6017 0.35277,-26.72291 0.12127,-0.12121 2.71523,-0.22038 5.76434,-0.22038 4.63727,0 5.58588,0.0649 5.80084,0.39688 0.16321,0.25206 0.22981,10.19561 0.18252,27.25208 -0.0744,26.84036 -0.0748,26.85636 -0.66331,28.97187 -2.15986,7.7638 -7.25809,11.85941 -15.40591,12.3762 -1.09141,0.0692 -2.89112,0.0286 -3.99936,-0.0902 z"
       style="fill:#1a1a1a;stroke-width:0.26458332"
       sodipodi:nodetypes="csccscscccccccsccsccscccccccscscccccccccscscccc" />
    <path
       style="fill:#1a1a1a;stroke-width:0.29660785"
       d="m -600.23668,180.38391 -5.9e-4,0.001 c -0.0337,0.007 -0.0674,0.0304 -0.10195,0.0626 -0.23354,-0.0114 -0.40312,0.0586 -0.54629,0.21782 -0.1806,0.20065 -1.02899,3.38613 -1.88568,7.07861 -1.03905,4.47917 -1.73163,6.92311 -2.08029,7.34337 -0.31378,0.3781 -0.65025,1.43624 -0.84234,2.6463 -0.17603,1.10871 -0.60374,3.01566 -0.95066,4.23767 -0.34697,1.22198 -0.63085,2.85878 -0.63085,3.63807 0,0.77928 -0.16566,2.04723 -0.36845,2.81778 -0.2027,0.77053 -0.50829,2.24355 -0.67781,3.27311 -0.30684,1.86265 -2.1033,10.17745 -3.26672,15.11948 -0.63139,2.68195 -1.73589,7.67956 -3.56451,16.12689 -0.58289,2.69268 -1.46513,6.58076 -1.96156,8.63986 -0.49643,2.05908 -1.32005,5.62259 -1.83004,7.9192 -0.8881,3.99987 -1.2981,5.13867 -2.23325,4.7747 -0.1203,-0.072 -0.2361,-0.17814 -0.34412,-0.32096 -0.57115,-0.75534 -1.73958,-1.27737 -2.86064,-1.27737 -0.50939,0 -0.82685,0.0584 -1.24611,0.36614 -0.4086,0.11552 -0.757,0.30099 -0.98482,0.56133 -2.01489,2.30218 -2.8432,3.10871 -4.2197,3.95556 -0.0527,0.0291 -0.10224,0.0598 -0.15583,0.0886 -1.02443,0.55015 -1.91306,1.09075 -2.67413,1.63135 -1.88468,1.29054 -3.31379,2.67362 -3.67631,3.62591 -0.47748,1.2556 -0.47504,3.56392 0.006,4.94792 0.20774,0.59713 0.51633,1.85852 0.6859,2.80271 0.16966,0.94413 0.64726,2.64494 1.06132,3.78 1.0801,2.96068 1.42793,4.91112 0.98192,5.50522 -0.1246,0.16595 -0.61302,0.49747 -1.2206,0.85391 -0.11692,0.0616 -0.22491,0.12202 -0.34528,0.18363 -0.83569,0.42788 -1.51721,0.80502 -2.16141,1.20325 -0.81745,0.48486 -1.66361,1.02682 -2.24716,1.45984 -1.91781,1.42318 -5.73853,5.09964 -7.20953,6.93787 -0.87004,1.08721 -0.96469,1.37795 -1.06535,3.2418 -0.12049,2.22936 -0.21445,2.57281 -0.92053,2.61154 -0.26335,-0.19264 -0.48474,-0.20151 -0.77281,-0.0324 -0.26692,0.15679 -1.29048,0.26461 -2.27379,0.23925 -0.003,-3e-5 -0.002,9e-5 -0.005,0 -0.1949,-0.0441 -0.36925,-0.0548 -0.53238,-0.0284 -21.47418,12.58558 -31.84454,18.81132 -36.50597,23.86881 0.22474,1.44961 0.45708,2.80974 0.67144,3.9318 h 228.40138 c 0.0739,-0.64372 0.16432,-1.40951 0.27807,-2.34216 -16.55476,-3.66023 -39.85707,-9.30509 -62.6225,-14.50077 -0.17132,-0.13386 -0.28981,-0.14472 -0.45939,0.005 -0.36026,0.0909 -0.71701,0.35863 -0.82611,0.71777 -0.008,0.0239 -0.0202,0.0438 -0.0313,0.0637 -0.20451,0.0848 -0.4237,0.0841 -0.7091,0.009 -0.14489,-0.038 -0.23557,-0.0689 -0.34525,-0.10197 -0.24325,-0.16183 -0.46105,-0.38506 -0.56427,-0.64186 -0.0511,-0.12719 -0.12635,-0.25111 -0.21261,-0.37192 -0.0454,-0.22907 -0.20157,-0.38001 -0.38117,-0.42118 -0.50643,-0.45728 -1.1377,-0.71296 -1.3191,-0.39565 -0.16628,0.29068 -0.76344,0.6125 -1.29475,0.76875 -0.3928,-0.0431 -0.73212,-0.10986 -0.87245,-0.20507 -0.0508,-0.0344 -0.097,-0.0982 -0.13961,-0.17382 -0.005,-0.12072 0.003,-0.25606 0.0405,-0.41999 0.11366,-0.49747 0.0673,-0.66322 -0.34007,-0.79135 -0.2573,-0.40864 -0.89477,-0.47544 -1.81613,-0.16509 -0.84002,0.28296 -0.98565,0.22239 -2.42616,-1.00568 -0.84302,-0.71889 -2.30105,-1.72656 -3.23896,-2.23907 -2.75981,-1.50786 -4.41601,-2.7788 -7.47715,-5.73574 -1.58739,-1.53337 -3.72199,-3.51231 -4.74342,-4.39757 -1.44139,-1.24928 -1.96069,-1.90689 -2.319,-2.93653 -0.49305,-1.41702 -1.45174,-2.30776 -4.00767,-3.72442 -0.43296,-0.24008 -0.79432,-0.40256 -1.11344,-0.50225 -0.24443,-0.16221 -0.54947,-0.36014 -0.71138,-0.47329 -0.40122,-0.28045 -0.81873,-0.55368 -1.24902,-0.82612 -0.1028,-0.4864 -0.33466,-0.65535 -1.03753,-0.9072 -1.63544,-0.58607 -2.42299,-1.38424 -3.98858,-4.04185 -1.65009,-2.80116 -3.71454,-5.28887 -5.0997,-6.14361 -0.50506,-0.31161 -1.8637,-1.33251 -3.01819,-2.26801 -1.15455,-0.93553 -2.39389,-1.78214 -2.75466,-1.88159 -0.36076,-0.0996 -1.48209,-0.62694 -2.49218,-1.17311 -1.59252,-0.86103 -2.07027,-0.98708 -3.59347,-0.94488 -1.56185,0.0432 -1.89924,-0.0526 -3.04023,-0.85622 -0.8219,-0.57883 -1.35407,-0.81232 -2.0861,-0.87938 -0.17553,-0.021 -0.35896,-0.033 -0.56136,-0.033 -0.68822,0 -1.3143,-0.11259 -1.39266,-0.25084 -0.0778,-0.13825 -0.009,-1.38068 0.15352,-2.76101 0.31111,-2.64532 0.12025,-4.7392 -0.75659,-8.30036 -0.11968,-0.48593 -0.21388,-0.8547 -0.35688,-1.17486 -0.39149,-1.21615 -1.11361,-1.61213 -4.74572,-3.65083 -1.79323,-1.00657 -3.60589,-2.14993 -4.02853,-2.54028 -0.0683,-0.063 -0.12538,-0.11837 -0.18191,-0.17379 -0.45307,-1.09395 -0.33911,-3.20302 0.31865,-3.82114 0.42127,-0.39594 0.52484,-0.84953 0.52484,-2.30103 0,-1.01326 -0.11594,-1.80803 -0.263,-1.80803 -0.0445,0 -0.0808,-0.01 -0.11354,-0.0238 -0.0471,-0.12895 -0.096,-0.2374 -0.14658,-0.29718 0.008,-0.27051 0.20104,-0.64203 0.52312,-0.83132 0.2886,-0.16951 0.52485,-0.49849 0.52485,-0.73051 0,-0.23198 -0.23625,-0.42116 -0.52485,-0.42116 -0.13727,0 -0.25493,0.038 -0.34121,0.008 -0.0268,-0.0252 -0.0566,-0.0528 -0.0904,-0.0817 -0.24524,-0.4977 0.33291,-3.42937 3.27544,-19.22158 0.72316,-3.88057 1.45018,-7.70369 1.61453,-8.49561 0.1645,-0.792 0.58431,-3.05962 0.93271,-5.03944 0.34834,-1.97989 1.05328,-5.80295 1.56704,-8.49562 2.14667,-11.25065 3.51255,-18.96061 3.39592,-19.1677 -0.003,-0.003 -0.0139,-0.008 -0.0139,-0.011 -0.0128,-0.17265 -0.0903,-0.34178 -0.22014,-0.43159 -0.5858,-0.40404 -12.12388,-4.15673 -12.52703,-4.0743 z m -0.1709,77.97947 h 5.6e-4 0.005 c 0.12217,0 0.24244,0.0909 0.34872,0.27982 0.0897,0.15913 0.8542,0.80455 1.69915,1.43437 0.84497,0.62982 2.05872,1.63345 2.69726,2.23037 0.63854,0.59693 1.48428,1.34408 1.87987,1.66089 l 0.71892,0.57583 -0.33947,3.5286 c -0.35717,3.7051 -0.3917,3.77374 -1.65394,3.24702 -0.51355,-0.21433 -0.67316,-0.48359 -0.67316,-1.13544 0,-0.46974 -0.12232,-0.93654 -0.27112,-1.03754 -0.14896,-0.10102 -0.51773,-0.76094 -0.81971,-1.46625 -0.12805,-0.29901 -0.2501,-0.54089 -0.37542,-0.75483 -0.35593,-0.73111 -1.03652,-1.1474 -2.10348,-1.28666 -0.0622,-0.0128 -0.11544,-0.0273 -0.18188,-0.0394 l -0.50575,-0.0938 c -0.25546,-0.0758 -0.45292,-0.18407 -0.60422,-0.34353 l -0.0707,-2.19445 c -0.0424,-1.33444 -0.19196,-2.57957 -0.33312,-2.7662 -0.17221,-0.22132 -0.17055,-0.60134 0,-1.09374 0.16892,-0.48738 0.37948,-0.74362 0.58281,-0.74502 z m -3.20708,16.71549 c 0.0229,-0.003 0.0474,2.1e-4 0.073,0.005 0.12274,0.0285 0.27733,0.15746 0.45476,0.3922 2.64417,0.71619 0.5772,1.15226 -0.54629,1.07927 -0.22792,-0.0147 -0.37773,-0.28522 -0.37773,-0.72011 0,-0.44233 0.23639,-0.73573 0.39626,-0.75599 z m 16.03999,9.48973 c 0.34101,0.0245 0.8271,0.23841 1.54444,0.5376 l 4.88362,4.47516 c 1.37116,1.68708 2.48519,2.76273 3.37332,3.25575 0.72957,0.4049 1.86774,1.03584 2.5293,1.40195 0.66152,0.36604 2.17852,0.97364 3.371,1.35152 2.11037,0.66873 2.1981,0.73363 3.29223,2.38849 0.61831,0.93524 1.49316,2.16942 1.94302,2.74306 0.44981,0.57361 0.81742,1.2047 0.81742,1.40311 0,0.19834 -0.56127,0.89083 -1.2467,1.53865 -2.84165,2.68558 -6.09413,6.37849 -6.6673,7.56928 -0.36305,0.7541 -0.77094,1.24098 -0.9993,1.19338 -0.21214,-0.0442 -0.9067,-0.90193 -1.54447,-1.90535 -0.31532,-0.49617 -0.79034,-1.13097 -1.33414,-1.81788 -1.34005,-1.76393 -3.21627,-3.85964 -5.11242,-5.7103 -0.87844,-0.88285 -1.7168,-1.6772 -2.42501,-2.27667 -1.17899,-0.99803 -2.26653,-2.15815 -2.41691,-2.57794 -0.15029,-0.41982 -0.5274,-1.97837 -0.83768,-3.46313 -0.53291,-2.54967 -0.54534,-2.90522 -0.2294,-6.40721 0.26093,-2.8913 0.30857,-3.75393 1.05898,-3.69947 z m -15.01402,8.69198 c 0.39953,0.031 0.58367,0.37197 0.45532,0.93327 -0.10301,0.4504 0.0458,0.8418 0.49359,1.30348 0.40558,0.41815 0.68757,1.09374 0.7699,1.84451 0.31613,2.8822 0.36142,4.4972 0.12802,4.4972 -0.13694,0 -0.72711,-0.34798 -1.31273,-0.77338 -0.58565,-0.42536 -1.39981,-1.30801 -1.80919,-1.96096 -0.73262,-1.16887 -0.73837,-1.21307 -0.40433,-2.89774 0.44758,-2.25728 0.61839,-2.66487 1.21191,-2.87164 0.1774,-0.0618 0.33433,-0.0856 0.46751,-0.0747 z m -30.00432,7.29296 h 5.7e-4 c 0.62969,-0.009 0.91414,0.68659 0.91414,2.17592 0,1.25963 0.18544,1.29175 -0.81683,1.66957 -1.00224,0.37776 -2.9134,0.16889 -4.45721,0.3163 -1.54385,0.14739 -5.60542,0.0678 -5.60542,0.0678 0,0 2.00415,-2.70652 4.08821,-3.22677 1.01413,-0.25315 4.97945,-0.71574 5.38411,-0.8846 0.18262,-0.0762 0.34718,-0.116 0.49243,-0.1182 z m 25.10448,6.18128 c 0.85254,0 3.94343,1.97241 5.31055,3.38898 0.87612,0.90783 1.63241,1.74773 1.68002,1.86652 0.10381,0.25627 -0.31876,0.2571 -3.68037,-0.0846 -0.33748,-0.0389 -0.67739,-0.0775 -1.00743,-0.11992 -1.39702,-0.17971 -2.72271,-0.32716 -3.65083,-0.41827 -0.96089,-0.14036 -1.62713,-0.26731 -1.69852,-0.33947 -0.14231,-0.14439 0.0409,-0.48917 0.44607,-0.83884 0.37817,-0.32659 1.06787,-1.23745 1.53227,-2.02414 0.46437,-0.78663 0.94512,-1.4303 1.06824,-1.4303 z m 49.13668,0.28792 c 0.0923,0 1.19548,0.76898 2.45052,1.70896 3.19384,2.392 9.00833,6.49883 9.98907,7.05544 0.59914,0.34015 0.87164,0.7191 0.82899,0.97326 -0.19983,1.8e-4 -0.42881,-0.0143 -0.69229,-0.0452 -0.30524,-0.0358 -0.92052,-0.0779 -1.64119,-0.12108 -0.0818,-0.0324 -0.16886,-0.0654 -0.23924,-0.0973 -0.67882,-0.30806 -0.96481,-0.31717 -1.36659,-0.0417 -0.0311,0.0209 -0.0752,0.0368 -0.11589,0.0545 -0.61748,-0.0285 -1.21467,-0.0604 -1.84045,-0.0817 -2.12075,-0.0716 -5.4276,-0.27738 -7.34742,-0.4571 -1.91989,-0.17968 -4.25229,-0.39926 -5.18426,-0.48718 -1.52495,-0.14397 -1.78095,-0.2638 -2.55825,-1.19512 -0.15705,-0.18814 -0.29743,-0.38701 -0.42465,-0.58337 -0.0556,-0.13934 -0.097,-0.26522 -0.0973,-0.34643 0,-0.23759 0.71797,-1.00592 1.59718,-1.70666 1.79691,-1.43199 6.38407,-4.62927 6.64179,-4.62927 z m -32.84757,0.10832 h 5.9e-4 c 0.0132,0 0.0287,0.003 0.0469,0.008 v -10e-4 c 0.25577,0.0658 0.98344,0.6054 1.75414,1.31213 1.01322,0.92921 1.76221,1.41271 2.03918,1.3162 0.26597,-0.0926 1.40566,0.55439 2.90178,1.64757 2.15539,1.57487 2.9613,2.38327 2.45164,2.46555 -0.11283,-0.0115 -0.20843,-0.0165 -0.34816,-0.0359 -0.069,-0.009 -0.2498,-0.0251 -0.34006,-0.0359 -0.5705,-0.0911 -2.10277,-0.22951 -3.65661,-0.32615 -1.51525,-0.10527 -2.96139,-0.30895 -3.21517,-0.45244 -0.059,-0.0334 -0.14451,-0.10506 -0.24447,-0.20105 l -0.55267,-0.67199 c -0.5128,-0.62294 -1.0456,-1.45827 -1.18355,-1.85668 -0.27258,-0.78699 -0.062,-2.90503 0.31399,-3.16015 0.008,-0.006 0.0194,-0.008 0.0325,-0.008 z"
       id="path4515-1-0"
       inkscape:connector-curvature="0" />
    <g
       id="g4612"
       transform="matrix(0.21284435,0,0,0.21284435,-864.24057,-547.16931)"
       inkscape:export-xdpi="96"
       inkscape:export-ydpi="96">
      <path
         style="fill:#e3dea0;stroke-width:0.26458332"
         d="m -675.32347,-135.53332 c -0.7276,-0.0522 -3.40651,-0.22534 -5.95312,-0.38481 -2.54662,-0.15949 -7.13052,-0.57089 -10.18646,-0.91424 -45.5279,-5.11542 -82.63448,-22.21301 -97.90149,-45.11003 -4.50714,-6.75968 -7.27038,-14.90966 -7.27038,-21.44347 0,-1.64161 -7.58108,-55.32215 -26.47653,-187.47682 -19.369,-135.46614 -26.452,-185.63826 -26.3849,-186.89638 0.5156,-9.67063 18.8623,-21.66124 48.38594,-31.6231 30.93205,-10.43706 68.81405,-17.54828 107.00153,-20.08634 20.02748,-1.33109 43.93495,-1.23437 63.5,0.25688 56.07061,4.27373 111.25726,19.64968 136.71479,38.09111 2.98473,2.16215 8.08569,7.27157 9.31449,9.32995 1.33567,2.23742 2.00509,4.2488 2.00509,6.0246 0,0.81244 -10.78269,84.12941 -23.96156,185.14881 -13.17884,101.0194 -23.95927,184.20742 -23.95651,184.86226 0.0106,2.50815 -0.54121,7.1215 -1.16205,9.71482 -1.67847,7.01116 -5.02875,13.11994 -10.98818,20.03541 -4.82377,5.59763 -8.64436,8.84835 -16.31484,13.88139 -7.25543,4.7607 -7.35875,4.82137 -13.04602,7.66104 -20.08467,10.02837 -44.77979,16.27269 -73.42188,18.5652 -3.50265,0.28033 -27.06341,0.56698 -29.89792,0.36372 z m -58.89339,-165.22162 c 4.74783,-0.77037 8.36553,-3.19569 10.36642,-6.94974 1.08761,-2.04057 1.34066,-4.67661 0.64887,-6.75941 -0.62929,-1.8946 -2.41767,-4.21188 -4.19559,-5.43637 -0.82744,-0.56988 -1.50443,-1.17512 -1.50443,-1.34498 0,-0.16986 0.93177,-0.91575 2.07059,-1.65751 3.63906,-2.37022 7.07331,-6.21221 8.66953,-9.69883 4.96756,-10.85059 -1.51621,-22.64617 -14.91574,-27.1354 -6.82766,-2.28749 -15.39798,-2.22528 -22.07996,0.16025 -12.22989,4.36618 -18.69682,14.87856 -15.4422,25.10224 0.91176,2.86409 2.29531,5.14133 4.60038,7.57193 4.41332,4.65365 9.91051,7.33107 17.58438,8.56445 1.18025,0.18971 1.24048,0.53986 0.32488,1.88908 -1.67163,2.46329 -1.88271,6.20532 -0.50868,9.01795 1.70087,3.48165 5.49777,5.99789 10.05203,6.66152 2.21353,0.32255 2.4284,0.32329 4.32952,0.0148 z m 33.09652,-71.56059 c 11.8681,-1.78176 26.05462,-7.65988 36.31651,-15.04756 4.12432,-2.96915 35.83269,-19.59732 44.12809,-23.14118 5.50162,-2.35033 11.19932,-2.95982 32.53248,-3.48003 24.07918,-0.58717 28.02136,-1.14382 37.82322,-5.34076 6.33879,-2.71413 17.85885,-9.06817 18.11801,-9.99323 0.0626,-0.22352 2.82675,-19.53576 6.14251,-42.91611 l 6.02867,-42.50972 -1.04061,-2.60174 c -2.89555,-7.23941 -8.81264,-17.6728 -12.16253,-21.44568 -6.05374,-6.8182 -30.80101,-15.77612 -59.40718,-21.50397 -26.10795,-5.22763 -53.40876,-7.49063 -80.34654,-6.66004 -18.11441,0.55854 -30.52616,1.61472 -47.19579,4.01614 -23.78235,3.42608 -48.64856,9.53154 -61.37017,15.06837 -7.20204,3.13454 -15.41398,12.0051 -21.51651,23.24221 l -1.10537,2.03539 0.004,5.68855 c 0.002,3.1287 0.15831,7.29589 0.34736,9.26042 0.9064,9.4188 2.4302,21.7491 4.29974,34.7927 2.4023,16.76064 7.7849,50.52003 8.56359,53.71042 0.21311,0.87312 0.45256,1.90631 0.53212,2.29596 0.12334,0.60411 0.46455,0.83184 2.31644,1.546 3.99442,1.54041 8.72153,2.61287 13.86009,3.1445 2.93853,0.30402 4.88187,0.97089 7.39646,2.53817 3.53535,2.20349 6.23173,4.63012 17.05244,15.34649 5.8936,5.83678 12.08485,11.72726 13.75834,13.08998 7.45357,6.06942 12.57659,8.378 20.5052,9.24022 3.17619,0.34541 10.96975,0.14246 14.41979,-0.3755 z"
         id="path4521-8"
         inkscape:connector-curvature="0"
         inkscape:export-xdpi="96"
         inkscape:export-ydpi="96" />
      <path
         style="fill:#b3cce1;stroke-width:0.26458332"
         d="m -675.32347,-135.53332 c -0.7276,-0.0522 -3.40651,-0.22534 -5.95312,-0.38481 -2.54662,-0.15949 -7.13052,-0.57089 -10.18646,-0.91424 -45.5279,-5.11542 -82.63448,-22.21301 -97.90149,-45.11003 -4.50714,-6.75968 -7.27038,-14.90966 -7.27038,-21.44347 0,-1.64161 -7.58108,-55.32215 -26.47653,-187.47682 -19.369,-135.46614 -26.452,-185.63826 -26.3849,-186.89638 0.5156,-9.67063 18.8623,-21.66124 48.38594,-31.6231 30.93205,-10.43706 68.81405,-17.54828 107.00153,-20.08634 20.02748,-1.33109 43.93495,-1.23437 63.5,0.25688 56.07061,4.27373 111.25726,19.64968 136.71479,38.09111 2.98473,2.16215 8.08569,7.27157 9.31449,9.32995 1.33567,2.23742 2.00509,4.2488 2.00509,6.0246 0,0.81244 -10.78269,84.12941 -23.96156,185.14881 -13.17884,101.0194 -23.95927,184.20742 -23.95651,184.86226 0.0106,2.50815 -0.54121,7.1215 -1.16205,9.71482 -1.67847,7.01116 -5.02875,13.11994 -10.98818,20.03541 -4.82377,5.59763 -8.64436,8.84835 -16.31484,13.88139 -7.25543,4.7607 -7.35875,4.82137 -13.04602,7.66104 -20.08467,10.02837 -44.77979,16.27269 -73.42188,18.5652 -3.50265,0.28033 -27.06341,0.56698 -29.89792,0.36372 z m -76.59687,-57.08369 c 0,-0.0502 -0.26789,-0.31811 -0.59531,-0.59531 l -0.59532,-0.50403 0.50403,0.59531 c 0.47367,0.55943 0.6866,0.71575 0.6866,0.50403 z m 193.24508,-21.33997 c 1.32966,-9.50322 12.5014,-98.08744 13.51394,-107.15625 0.36555,-3.27422 1.02981,-9.28687 1.47611,-13.36146 0.4463,-4.07458 3.22664,-26.81552 6.17852,-50.53542 2.9519,-23.71989 5.3703,-43.48426 5.37424,-43.92082 0.004,-0.43656 2.72839,-19.92312 6.05439,-43.30347 l 6.04721,-42.50972 -1.04061,-2.60174 c -2.89555,-7.23941 -8.81264,-17.6728 -12.16253,-21.44568 -6.05374,-6.8182 -30.80101,-15.77612 -59.40718,-21.50397 -26.10795,-5.22763 -53.40876,-7.49063 -80.34654,-6.66004 -18.11441,0.55854 -30.52616,1.61472 -47.19579,4.01614 -23.78235,3.42608 -48.64856,9.53154 -61.37017,15.06837 -7.20204,3.13454 -15.41398,12.0051 -21.51651,23.24221 l -1.10537,2.03539 0.004,5.68855 c 0.004,5.80323 0.19079,8.39361 1.34719,18.65313 1.80064,15.97514 5.40535,40.69698 9.8656,67.66019 0.98158,5.93382 1.68717,10.78876 1.56799,10.78876 -0.11919,0 -0.2167,0.35992 -0.2167,0.79981 0,0.4399 4.87647,36.84325 10.83661,80.89635 10.36193,76.58812 12.67279,93.99535 14.16302,106.68717 0.96658,8.23206 0.97577,8.29673 1.2402,8.73125 0.16691,0.27429 0.20014,0.15169 0.10757,-0.39687 -0.0737,-0.43657 -0.26456,-1.98438 -0.4242,-3.43959 -1.34533,-12.26381 -4.99711,-39.67146 -22.62655,-169.81909 -1.3766,-10.16259 -2.5029,-18.76485 -2.5029,-19.11615 0,-0.66168 0.24056,-0.80693 0.67469,-0.40737 0.52126,0.47975 4.74407,1.92418 7.8244,2.67637 1.75925,0.4296 4.82314,0.96667 6.80863,1.1935 4.125,0.47126 4.8082,0.65043 7.18186,1.88348 3.89096,2.02124 9.19215,6.66809 18.14053,15.90139 13.53206,13.96293 21.23408,19.75424 28.69072,21.57316 3.71408,0.90599 5.97946,1.1167 11.90625,1.10747 6.241,-0.01 9.68734,-0.40782 14.93346,-1.72498 10.29363,-2.58445 21.64683,-7.84364 30.27722,-14.02544 4.30654,-3.0847 37.94043,-20.61233 44.84311,-23.36909 4.79542,-1.91518 11.41518,-2.522 33.50663,-3.07147 21.73806,-0.54069 26.01161,-1.17631 35.84871,-5.33187 4.36743,-1.84497 10.01427,-4.74612 14.30489,-7.34937 1.69196,-1.02657 3.16164,-1.81375 3.26591,-1.7493 0.1043,0.0645 -2.1018,18.37058 -4.90239,40.68026 -5.09413,40.57973 -6.79783,54.71533 -7.79084,64.64017 -0.91387,9.134 -12.71577,102.22936 -14.40619,113.63854 -0.0924,0.62384 -0.0583,0.79653 0.10456,0.52917 0.13301,-0.21828 0.54999,-2.59953 0.92668,-5.29167 z m -173.12741,-87.00561 c 4.98485,-1.71505 8.32368,-5.07817 9.25542,-9.32283 0.3647,-1.66145 0.13844,-3.21903 -0.77831,-5.35771 -0.59098,-1.37872 -2.77335,-3.84357 -4.16407,-4.70307 -0.48554,-0.30009 -0.88279,-0.68834 -0.88279,-0.86278 0,-0.17444 0.90462,-0.90887 2.01027,-1.63206 2.53649,-1.65909 6.04723,-5.2819 7.43955,-7.67704 1.79463,-3.08719 2.50655,-5.3989 2.6561,-8.62478 0.16208,-3.49594 -0.34529,-6.01523 -1.79267,-8.90149 -3.19643,-6.37407 -10.17437,-11.21767 -18.79748,-13.0479 -3.92452,-0.83296 -10.10159,-0.83859 -13.95305,-0.0127 -12.53767,2.68843 -20.9452,11.2539 -20.9452,21.33862 0,10.05136 8.57024,18.78777 20.8941,21.2992 1.50931,0.30758 2.83876,0.61767 2.95433,0.68911 0.11557,0.0714 -0.0769,0.57062 -0.42766,1.10931 -1.72743,2.65288 -1.94901,6.52746 -0.53731,9.3957 1.10841,2.25203 3.74104,4.63841 6.28572,5.69775 1.10122,0.45845 2.63635,0.94689 3.4114,1.08543 1.98495,0.3548 5.64938,0.1198 7.37165,-0.47273 z"
         id="path4519-1"
         inkscape:connector-curvature="0"
         inkscape:export-xdpi="96"
         inkscape:export-ydpi="96" />
      <path
         style="fill:#f2dd5b;stroke-width:0.26458332"
         d="m -676.11722,-171.61523 c -26.15449,-1.1579 -49.92647,-7.21453 -71.39228,-18.18937 -3.53791,-1.80882 -5.31397,-3.40074 -8.39561,-7.52506 -2.22061,-2.97196 -5.94768,-8.74636 -7.06042,-10.93878 -0.54499,-1.07378 -1.47671,-7.33028 -2.71874,-18.25625 -1.71847,-15.11718 -4.54765,-36.35063 -22.62692,-169.81909 -1.3766,-10.16259 -2.5029,-18.76486 -2.5029,-19.11615 0,-0.66168 0.24056,-0.80693 0.67469,-0.40737 0.52126,0.47975 4.74407,1.92418 7.8244,2.67637 1.75925,0.4296 4.82314,0.96667 6.80863,1.1935 4.125,0.47126 4.8082,0.65043 7.18186,1.88348 3.89096,2.02124 9.19215,6.66809 18.14053,15.90139 13.53206,13.96293 21.23408,19.75424 28.69072,21.57316 3.71408,0.90599 5.97946,1.1167 11.90625,1.10747 6.241,-0.01 9.68734,-0.40782 14.93346,-1.72498 10.29363,-2.58445 21.64683,-7.84364 30.27722,-14.02544 4.30654,-3.0847 37.94043,-20.61233 44.84311,-23.3691 4.79542,-1.91517 11.41518,-2.52199 33.50663,-3.07146 21.73806,-0.54069 26.01161,-1.17631 35.84871,-5.33187 4.36743,-1.84497 10.01427,-4.74612 14.30489,-7.34937 1.69196,-1.02657 3.16164,-1.81375 3.26591,-1.7493 0.1043,0.0645 -2.1018,18.37058 -4.90239,40.68026 -5.09413,40.57973 -6.79783,54.71533 -7.79084,64.64017 -0.75745,7.57057 -10.27496,83.06385 -13.07475,103.7096 -1.27979,9.43721 -1.55025,10.96381 -2.10799,11.89892 -0.3519,0.59 -2.46293,3.8707 -4.69117,7.29044 l -4.05133,6.21771 -5.55625,2.79 c -18.84464,9.46264 -43.40164,16.04333 -68.52708,18.36362 -10.31289,0.95237 -23.86053,1.34363 -32.80834,0.9475 z m -55.68545,-129.34736 c 4.98485,-1.71505 8.32368,-5.07817 9.25542,-9.32283 0.3647,-1.66145 0.13844,-3.21903 -0.77831,-5.35771 -0.59098,-1.37872 -2.77335,-3.84357 -4.16407,-4.70307 -0.48554,-0.30009 -0.88279,-0.68834 -0.88279,-0.86278 0,-0.17444 0.90462,-0.90887 2.01027,-1.63206 2.53649,-1.65909 6.04723,-5.2819 7.43955,-7.67704 1.79463,-3.08719 2.50655,-5.3989 2.6561,-8.62478 0.16208,-3.49594 -0.34529,-6.01523 -1.79267,-8.90149 -3.19643,-6.37407 -10.17437,-11.21767 -18.79748,-13.0479 -3.92452,-0.83296 -10.10159,-0.83859 -13.95305,-0.0127 -12.53767,2.68843 -20.9452,11.2539 -20.9452,21.33862 0,10.05136 8.57024,18.78777 20.8941,21.2992 1.50931,0.30758 2.83876,0.61767 2.95433,0.68911 0.11557,0.0714 -0.0769,0.57062 -0.42766,1.10931 -1.72743,2.65288 -1.94901,6.52746 -0.53731,9.3957 1.10841,2.25203 3.74104,4.63841 6.28572,5.69775 1.10122,0.45845 2.63635,0.94689 3.4114,1.08543 1.98495,0.3548 5.64938,0.1198 7.37165,-0.47273 z"
         id="path4517-6"
         inkscape:connector-curvature="0"
         inkscape:export-xdpi="96"
         inkscape:export-ydpi="96" />
      <path
         style="fill:#fadc33;stroke-width:0.26458332"
         d="m -676.11722,-171.61523 c -26.15449,-1.1579 -49.92647,-7.21453 -71.39228,-18.18937 -3.53791,-1.80882 -5.31397,-3.40074 -8.39561,-7.52506 -2.22061,-2.97196 -5.94768,-8.74636 -7.06042,-10.93878 -0.60334,-1.18874 -2.34357,-13.14831 -2.09263,-14.38137 0.14803,-0.72739 -2.56397,-23.10339 -4.84172,-39.9478 -0.72141,-5.335 -5.66743,-41.89177 -10.99113,-81.23724 -5.32371,-39.3455 -9.63857,-71.57817 -9.58857,-71.62817 0.05,-0.05 0.97746,0.27196 2.06101,0.71546 2.60506,1.06625 8.23014,2.48911 11.36281,2.87422 5.58825,0.68697 5.91742,0.76456 8.33438,1.96456 3.7826,1.87804 7.37524,4.98314 17.4625,15.09276 11.85374,11.88002 15.10234,14.77466 20.6338,18.38564 6.25341,4.08227 12.47804,5.52932 22.49328,5.22904 5.46597,-0.16388 8.59583,-0.57089 13.49375,-1.75473 10.06371,-2.43243 19.6592,-6.83653 30.03021,-13.78313 6.04006,-4.0457 39.93604,-21.71678 45.52436,-23.73334 4.97019,-1.7935 10.34406,-2.2984 30.29669,-2.84649 22.09659,-0.60698 26.95169,-1.09563 33.4111,-3.36266 6.08134,-2.13434 13.51481,-5.72545 19.98387,-9.65422 1.29159,-0.78439 2.40337,-1.37111 2.47065,-1.30382 0.0673,0.0673 -2.32907,19.68773 -5.32529,43.60098 -2.9962,23.91326 -6.0469,48.83646 -6.77934,55.3849 -0.73242,6.54843 -2.45425,20.83593 -3.82625,31.75 -4.19632,33.38081 -8.55641,67.78384 -9.80821,77.39062 -0.65418,5.02047 -1.22309,9.67854 -1.26423,10.35127 -0.0645,1.05349 -0.51006,1.89738 -3.21331,6.08541 -1.72614,2.67425 -3.83445,5.90341 -4.68511,7.17593 l -1.54662,2.31367 -5.88114,2.89626 c -19.21698,9.46373 -43.08799,15.82201 -68.05821,18.12796 -10.31289,0.95237 -23.86053,1.34363 -32.80834,0.9475 z m -55.13398,-129.18424 c 3.45135,-1.26879 5.71714,-2.97672 7.40911,-5.58499 2.11122,-3.25456 2.30716,-6.19344 0.63932,-9.58913 -0.87333,-1.77811 -2.68955,-3.82252 -4.34112,-4.88654 l -0.62668,-0.40375 1.59101,-0.98203 c 2.089,-1.28939 5.35816,-4.36234 6.79031,-6.38273 4.93214,-6.95796 5.30631,-14.41537 1.06473,-21.22072 -4.93082,-7.91117 -15.84438,-12.81173 -27.1104,-12.17348 -14.86544,0.84217 -26.19375,10.46768 -26.19375,22.25649 0,10.31134 8.90799,19.30447 21.4849,21.69027 1.18699,0.22516 2.19583,0.44707 2.24187,0.49311 0.046,0.046 -0.27223,0.74083 -0.70726,1.54403 -2.08402,3.84773 -1.16645,8.87079 2.20246,12.05698 1.59724,1.51058 4.47945,3.06901 6.73662,3.64246 2.2938,0.5828 6.59217,0.35859 8.81888,-0.45997 z"
         id="path4515-13"
         inkscape:connector-curvature="0"
         inkscape:export-xdpi="96"
         inkscape:export-ydpi="96" />
      <path
         sodipodi:nodetypes="csccscscccccccsccsccscccccccscscccccccccscscccc"
         style="fill:#1a1a1a;stroke-width:0.26458332"
         d="m -580.95265,-309.89908 c -3.63529,-0.30636 -6.55018,-0.72382 -9.26041,-1.32617 -3.27937,-0.72882 -12.3386,-3.61389 -13.103,-4.17279 -0.44219,-0.32338 -0.42212,-0.58164 0.38454,-4.94721 1.11003,-6.00742 1.05089,-5.79668 1.6265,-5.79668 0.27078,0 2.25217,0.63807 4.40309,1.41791 7.56072,2.74113 12.03924,3.80674 17.02608,4.05108 2.30482,0.1129 3.76682,0.059 4.7625,-0.17571 2.95818,-0.69723 5.20237,-2.30603 6.37874,-4.57268 0.72541,-1.39774 0.98845,-5.39396 0.47561,-7.22562 -0.4532,-1.61872 -2.28645,-3.60828 -4.12713,-4.47905 -0.80436,-0.38055 -4.69797,-1.46677 -8.65251,-2.41382 -11.49253,-2.75238 -13.93332,-3.7764 -17.53685,-7.35732 -3.7468,-3.72327 -5.04311,-7.47673 -4.7895,-13.86798 0.16021,-4.03754 0.56936,-5.87122 1.92696,-8.63617 1.8155,-3.6975 4.66506,-6.45676 8.52663,-8.2564 3.23232,-1.50641 5.49195,-1.97945 10.1572,-2.12635 4.67501,-0.1472 7.87617,0.15169 12.38489,1.15636 3.65947,0.81544 13.31393,3.9284 13.72698,4.42611 0.21965,0.26469 0.061,1.51926 -0.62723,4.95855 -1.1843,5.91848 -1.15228,5.79484 -1.49912,5.79484 -0.16254,0 -2.38305,-0.78253 -4.93454,-1.73892 -10.91342,-4.09092 -19.23095,-5.10287 -23.6767,-2.88061 -2.99656,1.49783 -4.19259,3.47116 -4.36874,7.20795 -0.14498,3.07586 0.22262,4.45614 1.60518,6.02681 1.58845,1.80454 3.37211,2.55336 9.7382,4.08813 3.11873,0.75187 6.76042,1.64823 8.09279,1.99184 8.61822,2.22284 13.23901,5.95604 15.21499,12.2923 0.54354,1.74297 0.61884,2.51556 0.61884,6.35 0,3.83681 -0.0751,4.60606 -0.61966,6.35 -2.19493,7.02953 -7.61619,11.80563 -15.12308,13.32344 -2.08939,0.42246 -6.7184,0.70776 -8.73125,0.53816 z m -51.09517,-0.64958 c -2.00256,-0.21476 -7.69379,-1.40184 -8.87609,-1.85134 -0.34007,-0.1293 -0.61434,-0.44635 -0.60947,-0.70461 0.0273,-1.45066 1.25912,-9.11945 1.5042,-9.36453 0.21146,-0.21143 1.1102,-0.0921 3.29152,0.43714 5.65247,1.37139 9.51045,0.94354 11.12874,-1.2342 1.45176,-1.95363 1.38676,-0.71051 1.5292,-29.24598 0.0728,-14.57639 0.23152,-26.60169 0.35277,-26.7229 0.12127,-0.12121 2.71523,-0.22038 5.76434,-0.22038 4.63727,0 5.58588,0.0649 5.80084,0.39688 0.16322,0.25206 0.22981,10.19561 0.18252,27.25207 -0.0744,26.84039 -0.0748,26.85637 -0.66331,28.9719 -2.15986,7.7638 -7.25809,11.85939 -15.40591,12.3762 -1.09141,0.0692 -2.89112,0.0286 -3.99935,-0.0902 z"
         id="path4513-31"
         inkscape:connector-curvature="0"
         inkscape:export-xdpi="96"
         inkscape:export-ydpi="96" />
      <path
         inkscape:connector-curvature="0"
         id="path4515-1-4"
         d="m -684.16926,-348.47879 v 0 c -0.0302,0.006 -0.0605,0.027 -0.0915,0.0558 -0.20831,-0.0103 -0.35957,0.0523 -0.48731,0.19431 -0.16108,0.17899 -0.91787,3.02053 -1.68207,6.31433 -0.92686,3.99555 -1.54466,6.17564 -1.8557,6.55053 -0.27988,0.33726 -0.58002,1.28114 -0.75137,2.36056 -0.15703,0.98901 -0.53856,2.69004 -0.84801,3.78013 -0.30951,1.09005 -0.56275,2.55013 -0.56275,3.2453 0,0.69514 -0.14777,1.82618 -0.32866,2.51354 -0.18082,0.68733 -0.45344,2.00131 -0.60463,2.9197 -0.27371,1.66156 -1.87624,9.0786 -2.91404,13.48703 -0.56322,2.39239 -1.54845,6.85041 -3.17963,14.38569 -0.51996,2.40194 -1.30693,5.87023 -1.74977,7.70702 -0.44283,1.83676 -1.17753,5.0155 -1.63245,7.06416 -0.79222,3.56799 -1.15795,4.58383 -1.99213,4.25916 -0.10731,-0.0642 -0.21063,-0.15888 -0.30697,-0.28628 -0.50948,-0.67379 -1.55175,-1.13945 -2.55177,-1.13945 -0.4544,0 -0.73758,0.0521 -1.11157,0.3266 -0.36449,0.10305 -0.67527,0.2685 -0.87849,0.50072 -1.79735,2.05362 -2.53625,2.77307 -3.76413,3.52849 -0.047,0.0259 -0.0912,0.0534 -0.13901,0.0791 -0.91382,0.49075 -1.70648,0.97298 -2.38537,1.45521 -1.68119,1.1512 -2.95601,2.38498 -3.27938,3.23445 -0.42593,1.12003 -0.42394,3.17913 0.005,4.41367 0.18531,0.53266 0.46058,1.65786 0.61185,2.5001 0.15134,0.8422 0.57734,2.3594 0.9467,3.37191 0.96348,2.64099 1.27378,4.38084 0.87593,4.9108 -0.11115,0.14806 -0.54684,0.44376 -1.08881,0.76171 -0.10428,0.055 -0.20064,0.10887 -0.308,0.1638 -0.74547,0.38169 -1.3534,0.7181 -1.92805,1.07333 -0.72919,0.43252 -1.48402,0.91599 -2.00454,1.30226 -1.71074,1.26952 -5.11894,4.54903 -6.43112,6.18876 -0.7761,0.96986 -0.86053,1.22917 -0.95033,2.89182 -0.10747,1.98863 -0.19129,2.29499 -0.82113,2.32955 -0.23493,-0.17185 -0.43241,-0.17971 -0.68937,-0.0289 -0.2381,0.13986 -1.15115,0.23607 -2.0283,0.21344 -0.003,-2e-5 -0.002,8e-5 -0.004,0 -0.17386,-0.0393 -0.32936,-0.0489 -0.4749,-0.0254 -19.1556,11.2267 -28.40628,16.78025 -32.56442,21.29171 0.4299,2.77315 0.8949,5.27635 1.1534,5.7857 1.11281,2.19242 4.83944,7.96689 7.06004,10.93885 3.0817,4.12433 4.85798,5.7163 8.39586,7.52512 21.46591,10.97484 45.23753,17.03118 71.39204,18.18908 8.94779,0.39613 22.49543,0.005 32.80834,-0.94724 24.97018,-2.30595 48.84136,-8.66436 68.05836,-18.12809 l 5.88129,-2.89644 1.54668,-2.31357 c 0.85071,-1.27251 2.95889,-4.50154 4.68498,-7.17579 2.7033,-4.18804 3.14925,-5.03193 3.21326,-6.08542 0.0201,-0.33126 0.17041,-1.64282 0.39377,-3.47419 -14.76734,-3.26504 -35.55375,-8.30043 -55.8612,-12.93514 -0.15283,-0.1194 -0.25853,-0.12924 -0.40979,0.004 -0.32136,0.0811 -0.63958,0.31994 -0.73689,0.6403 -0.007,0.0214 -0.018,0.039 -0.0279,0.0568 -0.18243,0.0756 -0.37795,0.0747 -0.63251,0.008 -0.12925,-0.0339 -0.21016,-0.0614 -0.308,-0.0909 -0.21698,-0.14438 -0.41124,-0.34348 -0.50332,-0.57258 -0.0456,-0.11343 -0.11271,-0.224 -0.18965,-0.33176 -0.0405,-0.20434 -0.17984,-0.33899 -0.34004,-0.37569 -0.45175,-0.40793 -1.01486,-0.63598 -1.17668,-0.35295 -0.14833,0.25932 -0.68101,0.54639 -1.15496,0.68575 -0.35039,-0.0384 -0.65307,-0.098 -0.77825,-0.18294 -0.0453,-0.0307 -0.0865,-0.0876 -0.12454,-0.15502 -0.004,-0.10771 0.003,-0.22841 0.0362,-0.37465 0.10139,-0.44375 0.06,-0.5916 -0.30334,-0.7059 -0.22953,-0.36452 -0.79817,-0.42413 -1.62005,-0.14727 -0.74932,0.25239 -0.87923,0.19836 -2.16421,-0.89712 -0.752,-0.64127 -2.05258,-1.54012 -2.88922,-1.99729 -2.46185,-1.34509 -3.93925,-2.47878 -6.66988,-5.11649 -1.41598,-1.36779 -3.32013,-3.13309 -4.23127,-3.92276 -1.28577,-1.1144 -1.74901,-1.70098 -2.06862,-2.61946 -0.43982,-1.26402 -1.29501,-2.05861 -3.57497,-3.32229 -0.38622,-0.21415 -0.70856,-0.35909 -0.99322,-0.44805 -0.21805,-0.14467 -0.49012,-0.32125 -0.63458,-0.42216 -0.3579,-0.25017 -0.73033,-0.49393 -1.11416,-0.73692 -0.0917,-0.43389 -0.29853,-0.5846 -0.92551,-0.80926 -1.45886,-0.52279 -2.16138,-1.23478 -3.55793,-3.60547 -1.47193,-2.49873 -3.31346,-4.71784 -4.54906,-5.48027 -0.45054,-0.27799 -1.66251,-1.18864 -2.69235,-2.02313 -1.02987,-0.83452 -2.1354,-1.58972 -2.45721,-1.67847 -0.32182,-0.0888 -1.3221,-0.55925 -2.22314,-1.04642 -1.42057,-0.76806 -1.84674,-0.88054 -3.20548,-0.84286 -1.39321,0.0385 -1.69418,-0.0469 -2.71198,-0.76377 -0.73316,-0.51634 -1.20785,-0.72464 -1.86086,-0.78446 -0.15656,-0.0188 -0.3202,-0.0295 -0.50075,-0.0295 -0.61392,0 -1.1724,-0.10043 -1.2423,-0.22375 -0.0694,-0.12333 -0.008,-1.23161 0.13695,-2.46288 0.27752,-2.35974 0.10728,-4.22754 -0.6749,-7.4042 -0.10676,-0.43344 -0.19077,-0.76243 -0.31832,-1.04799 -0.34925,-1.08487 -0.99341,-1.43807 -4.23334,-3.25665 -1.59962,-0.89792 -3.21656,-1.91781 -3.59357,-2.26603 -0.0609,-0.0562 -0.11186,-0.10559 -0.16227,-0.15502 -0.40417,-0.97583 -0.30252,-2.8572 0.28422,-3.40857 0.37579,-0.35319 0.46818,-0.75782 0.46818,-2.05258 0,-0.90387 -0.10343,-1.61283 -0.23461,-1.61283 -0.0397,0 -0.0721,-0.008 -0.10128,-0.0206 -0.042,-0.11502 -0.0856,-0.21178 -0.13076,-0.26509 0.007,-0.2413 0.17934,-0.57272 0.46665,-0.74155 0.25744,-0.15121 0.46821,-0.44468 0.46821,-0.65164 0,-0.20696 -0.21077,-0.37571 -0.46821,-0.37571 -0.12245,0 -0.22741,0.0337 -0.30438,0.007 -0.0239,-0.0225 -0.0505,-0.0471 -0.0806,-0.0729 -0.21875,-0.44397 0.29697,-3.05911 2.9218,-17.14624 0.64508,-3.4616 1.29362,-6.87195 1.44023,-7.57836 0.14674,-0.70649 0.5212,-2.72926 0.83198,-4.49532 0.31073,-1.76612 0.93956,-5.17642 1.39785,-7.57836 1.91489,-10.03593 3.1333,-16.91346 3.02927,-17.09817 -0.003,-0.003 -0.0124,-0.007 -0.0124,-0.01 -0.0114,-0.15401 -0.0805,-0.30488 -0.19635,-0.385 -0.52263,-0.36049 -10.81889,-3.70916 -11.17505,-3.63439 z m -0.15242,69.56009 h 5.3e-4 0.004 c 0.10899,0 0.21627,0.0811 0.3111,0.24961 0.08,0.14195 0.76197,0.71768 1.51567,1.2795 0.75377,0.56182 1.83644,1.45709 2.40604,1.98953 0.56959,0.5325 1.32403,1.19899 1.6769,1.48157 l 0.64132,0.51368 -0.30284,3.14759 c -0.31861,3.3051 -0.34941,3.36632 -1.47537,2.89648 -0.4581,-0.19122 -0.60047,-0.43138 -0.60047,-1.01286 0,-0.41902 -0.10909,-0.83542 -0.24183,-0.92553 -0.13287,-0.0901 -0.46183,-0.67877 -0.73123,-1.30792 -0.11422,-0.26673 -0.22307,-0.48249 -0.33485,-0.67334 -0.3175,-0.65217 -0.92464,-1.02351 -1.87638,-1.14773 -0.0555,-0.0114 -0.103,-0.0244 -0.16227,-0.0351 l -0.45114,-0.0837 c -0.22788,-0.0676 -0.40401,-0.1642 -0.53898,-0.30644 l -0.0631,-1.95749 c -0.0378,-1.19039 -0.17124,-2.30108 -0.29713,-2.46756 -0.15364,-0.1974 -0.15216,-0.53639 0,-0.97565 0.15082,-0.43516 0.33886,-0.66373 0.52039,-0.66455 z m -2.86081,14.91073 c 0.0204,-0.003 0.0423,5e-5 0.0651,0.004 0.10949,0.0254 0.24739,0.14044 0.40566,0.34983 2.35868,0.63886 0.51488,1.02788 -0.48731,0.96274 -0.2033,-0.013 -0.33694,-0.2544 -0.33694,-0.64233 0,-0.3946 0.21087,-0.65632 0.35348,-0.6744 z m 14.30816,8.46511 c 0.30419,0.022 0.73779,0.21267 1.37769,0.47955 l 4.35634,3.99201 c 1.22311,1.50492 2.21686,2.46443 3.0091,2.90422 0.6508,0.36116 1.66608,0.92401 2.25621,1.25056 0.5901,0.32655 1.94332,0.86855 3.00704,1.20562 1.88251,0.59651 1.96078,0.65443 2.93678,2.13061 0.55154,0.83424 1.33193,1.93519 1.73322,2.44687 0.40125,0.51168 0.72914,1.07466 0.72914,1.25161 0,0.17696 -0.50064,0.79465 -1.11207,1.37253 -2.53486,2.39562 -5.43615,5.68981 -5.94743,6.75206 -0.32385,0.67268 -0.68771,1.10696 -0.89141,1.06452 -0.18923,-0.0394 -0.80881,-0.80457 -1.37771,-1.69963 -0.28128,-0.44259 -0.70501,-1.00888 -1.1901,-1.62163 -1.19536,-1.57345 -2.86901,-3.44289 -4.56044,-5.09373 -0.78359,-0.78756 -1.53143,-1.49611 -2.16318,-2.03089 -1.05169,-0.89021 -2.02181,-1.92511 -2.15595,-2.2996 -0.13409,-0.37446 -0.47046,-1.76474 -0.74724,-3.08919 -0.47538,-2.27439 -0.48646,-2.59154 -0.20463,-5.71543 0.23276,-2.57913 0.27525,-3.34862 0.94464,-3.30006 z m -13.39299,7.75353 c 0.35639,0.0277 0.52067,0.33181 0.40618,0.83251 -0.0919,0.40175 0.0409,0.75092 0.4403,1.16271 0.36179,0.37301 0.61333,0.97568 0.68678,1.64539 0.28199,2.57101 0.32237,4.01164 0.11419,4.01164 -0.12216,0 -0.64862,-0.31041 -1.17099,-0.6899 -0.52242,-0.37944 -1.24868,-1.16676 -1.61385,-1.74924 -0.65353,-1.04261 -0.65866,-1.08206 -0.36071,-2.58484 0.39928,-2.01356 0.55166,-2.37715 1.08109,-2.56159 0.15824,-0.0551 0.29821,-0.0764 0.41701,-0.0667 z m -26.76478,6.50555 h 5.3e-4 c 0.56171,-0.008 0.81545,0.61246 0.81545,1.94096 0,1.12363 0.16539,1.15231 -0.72864,1.48934 -0.89405,0.33697 -2.59884,0.15062 -3.97597,0.28215 -1.37716,0.13144 -5.00023,0.0605 -5.00023,0.0605 0,0 1.78779,-2.4143 3.64681,-2.87837 0.90466,-0.2258 4.44185,-0.63847 4.80282,-0.7891 0.1629,-0.068 0.30967,-0.10348 0.43923,-0.10543 z m 22.39399,5.51386 c 0.76049,0 3.51766,1.75946 4.73718,3.02308 0.78153,0.80981 1.45616,1.55906 1.49863,1.66502 0.0926,0.22858 -0.28435,0.22926 -3.283,-0.0755 -0.30105,-0.0347 -0.60426,-0.0691 -0.89866,-0.10697 -1.24619,-0.16034 -2.42874,-0.29187 -3.25665,-0.37312 -0.85715,-0.12523 -1.45148,-0.23844 -1.51517,-0.30282 -0.12694,-0.1288 0.0365,-0.43635 0.39791,-0.74826 0.33735,-0.29134 0.95261,-1.10385 1.36687,-1.8056 0.41425,-0.7017 0.84304,-1.27587 0.95289,-1.27587 z m 43.83143,0.25683 c 0.0823,0 1.06638,0.68596 2.18591,1.52448 2.84901,2.13371 8.03574,5.79715 8.91059,6.29367 0.53445,0.3034 0.77753,0.64146 0.73948,0.86815 -0.17825,1.9e-4 -0.38251,-0.0127 -0.61754,-0.0403 -0.27228,-0.0319 -0.82112,-0.0695 -1.46399,-0.108 -0.073,-0.0289 -0.15063,-0.0583 -0.21341,-0.0868 -0.60553,-0.27479 -0.86064,-0.28292 -1.21904,-0.0372 -0.0277,0.0188 -0.0671,0.0329 -0.10337,0.0486 -0.55082,-0.0254 -1.08353,-0.0539 -1.64177,-0.0729 -1.89177,-0.0639 -4.84156,-0.24744 -6.5541,-0.40775 -1.7126,-0.16031 -3.7932,-0.35613 -4.62455,-0.43457 -1.3603,-0.12841 -1.58866,-0.23532 -2.28203,-1.06609 -0.14009,-0.16783 -0.2653,-0.34523 -0.37878,-0.52038 -0.0496,-0.1243 -0.0865,-0.23659 -0.0868,-0.30904 0,-0.21193 0.64043,-0.89728 1.4247,-1.52238 1.6029,-1.27738 5.69479,-4.12946 5.92471,-4.12946 z m -29.30104,0.0966 c 0.0119,-2e-5 0.026,0.003 0.0424,0.007 v 0 c 0.22815,0.0587 0.87728,0.54006 1.56477,1.17046 0.90382,0.82891 1.57194,1.26021 1.81901,1.17409 0.23725,-0.0826 1.25389,0.49456 2.58847,1.46968 1.92268,1.40483 2.64155,2.12595 2.18694,2.19935 -0.10067,-0.0103 -0.18592,-0.0148 -0.31056,-0.032 -0.0616,-0.008 -0.22284,-0.0222 -0.30335,-0.032 -0.5089,-0.0813 -1.87574,-0.20471 -3.26181,-0.29094 -1.35165,-0.0939 -2.64168,-0.27556 -2.86806,-0.40359 -0.0526,-0.0298 -0.1289,-0.0937 -0.21807,-0.17931 l -0.49297,-0.59947 c -0.45744,-0.55565 -0.93271,-1.3008 -1.05576,-1.65621 -0.24316,-0.70202 -0.0553,-2.59136 0.28008,-2.81895 0.007,-0.005 0.0171,-0.007 0.029,-0.007 z"
         style="fill:#1a1a1a;stroke-width:0.26458332"
         inkscape:export-xdpi="96"
         inkscape:export-ydpi="96" />
    </g>
    <g
       id="g4715"
       inkscape:export-xdpi="96"
       inkscape:export-ydpi="96"
       transform="matrix(0.48631705,0,0,0.48631705,-558.50301,169.31343)">
      <circle
         r="119.20221"
         cy="210.40466"
         cx="-968.05017"
         id="path4644-5"
         style="opacity:1;fill:#ffffff;fill-opacity:1;stroke:none;stroke-width:0.26458332;stroke-opacity:1" />
      <path
         inkscape:connector-curvature="0"
         id="path4644"
         d="m -942.96718,128.96279 c -37.78994,0.062 -67.55302,14.89858 -98.36462,15.39079 -10.6784,0.17058 -18.6553,-0.61618 -24.706,-2.15905 a 119.20221,119.20221 0 0 0 -20.9222,56.51645 v 22.48442 a 119.20221,119.20221 0 0 0 118.61711,108.41147 119.20221,119.20221 0 0 0 119.20254,-119.20255 119.20221,119.20221 0 0 0 -30.50201,-79.41737 c -17.233,0.94656 -32.32476,1.06985 -41.44709,-0.35347 -7.60629,-1.18678 -14.87961,-1.68218 -21.87773,-1.67069 z"
         style="opacity:1;fill:#fadc33;fill-opacity:1;stroke:none;stroke-width:0.26458332;stroke-opacity:1" />
      <path
         sodipodi:nodetypes="ccsccccccccccccccc"
         inkscape:connector-curvature="0"
         id="path4529-0"
         d="m -1036.9517,171.95488 c -0.5475,-0.002 -1.0977,0.012 -1.6485,0.0433 -11.6285,0.65879 -20.49,8.18838 -20.49,17.4102 0,8.06605 6.9683,15.10124 16.8066,16.96754 0.9285,0.17614 1.7179,0.34966 1.754,0.38565 0.036,0.036 -0.2132,0.57954 -0.5534,1.20786 -1.6303,3.00989 -0.9125,6.9389 1.7229,9.43131 1.2494,1.18164 3.5039,2.4009 5.2696,2.84949 1.7943,0.45588 5.1569,0.28054 6.8988,-0.35978 2.6998,-0.9925 4.472,-2.3287 5.7955,-4.36902 1.6515,-2.54588 1.8047,-4.84478 0.5001,-7.50107 -0.6831,-1.39092 -2.1036,-2.99016 -3.3956,-3.82248 l -0.4904,-0.31571 1.2447,-0.76847 c 1.6341,-1.00862 4.1914,-3.41229 5.3117,-4.99275 3.8582,-5.44288 4.1506,-11.27661 0.8327,-16.6001 -3.6161,-5.80174 -11.3451,-9.53346 -19.5587,-9.56592 z"
         style="opacity:1;fill:#ffffff;fill-opacity:1;stroke:none;stroke-width:0.27189714;stroke-opacity:1" />
      <path
         sodipodi:nodetypes="csccscscccccccsccsccscccccccscscccccccccscscccc"
         style="fill:#1a1a1a;stroke-width:0.20697057"
         d="m -909.62069,212.77225 c -2.84374,-0.23965 -5.1239,-0.5662 -7.24398,-1.03738 -2.56529,-0.57015 -9.65189,-2.82697 -10.24983,-3.2642 -0.34591,-0.25294 -0.3302,-0.45498 0.3008,-3.86994 0.86833,-4.69932 0.82207,-4.53446 1.27233,-4.53446 0.21182,0 1.76176,0.49912 3.44432,1.10915 5.91438,2.14427 9.41772,2.97784 13.31869,3.16896 1.80292,0.0883 2.94658,0.0462 3.72547,-0.13743 2.31401,-0.54543 4.06956,-1.80391 4.98975,-3.577 0.56745,-1.09339 0.77322,-4.21941 0.37207,-5.65223 -0.35454,-1.26625 -1.78858,-2.82258 -3.22845,-3.50376 -0.62921,-0.29767 -3.67501,-1.14736 -6.76844,-1.88821 -8.99005,-2.15305 -10.89936,-2.95408 -13.71823,-5.75526 -2.93094,-2.91253 -3.94498,-5.84868 -3.74659,-10.84824 0.12533,-3.15838 0.44538,-4.59277 1.50737,-6.75566 1.42018,-2.89237 3.64925,-5.05081 6.66997,-6.45858 2.52847,-1.17839 4.29608,-1.54842 7.94548,-1.66334 3.65701,-0.11514 6.16115,0.11866 9.68809,0.90457 2.86263,0.63788 10.41483,3.07299 10.73794,3.46233 0.17183,0.20705 0.0477,1.18844 -0.49066,3.87883 -0.9264,4.62974 -0.90138,4.53303 -1.17268,4.53303 -0.12714,0 -1.86416,-0.61214 -3.86004,-1.36029 -8.53704,-3.20012 -15.04343,-3.99172 -18.52114,-2.25335 -2.34406,1.17167 -3.27965,2.71531 -3.41744,5.63843 -0.11342,2.40609 0.17414,3.4858 1.25565,4.71446 1.24256,1.41162 2.63783,1.99737 7.61773,3.19795 2.4396,0.58816 5.28834,1.28932 6.33057,1.55813 6.74161,1.7388 10.35623,4.6591 11.90195,9.61567 0.42518,1.36342 0.48408,1.96777 0.48408,4.96729 0,3.00132 -0.0588,3.60307 -0.48471,4.96729 -1.71698,5.49885 -5.95777,9.23496 -11.83004,10.42227 -1.63445,0.33048 -5.2555,0.55366 -6.83003,0.42097 z m -39.96927,-0.50813 c -1.5665,-0.168 -6.01847,-1.09659 -6.94332,-1.4482 -0.26602,-0.10115 -0.48057,-0.34918 -0.47676,-0.5512 0.0214,-1.13477 0.98495,-7.13368 1.17666,-7.32541 0.16542,-0.1654 0.86846,-0.072 2.5748,0.34195 4.42165,1.07277 7.43956,0.73807 8.70547,-0.96545 1.13564,-1.52823 1.08479,-0.55579 1.19621,-22.87769 0.057,-11.4024 0.1811,-20.8092 0.27596,-20.90402 0.0949,-0.0948 2.12399,-0.17239 4.50916,-0.17239 3.62751,0 4.36956,0.0508 4.53771,0.31046 0.12767,0.19717 0.17977,7.97552 0.14278,21.31796 -0.0582,20.9959 -0.0585,21.00842 -0.51888,22.66328 -1.68955,6.07325 -5.67764,9.27704 -12.05128,9.6813 -0.85376,0.0541 -2.26159,0.0224 -3.12851,-0.0706 z"
         id="path4513-3-7"
         inkscape:connector-curvature="0"
         inkscape:export-xdpi="96"
         inkscape:export-ydpi="96" />
      <path
         inkscape:connector-curvature="0"
         id="path4515-1-0-2"
         d="m -987.20296,171.70022 -4.1e-4,7.8e-4 c -0.0257,0.005 -0.0513,0.0236 -0.0776,0.0486 -0.17778,-0.009 -0.30688,0.0454 -0.41587,0.16888 -0.13749,0.15557 -0.78335,2.62531 -1.43553,5.48812 -0.791,3.47275 -1.31824,5.36756 -1.58367,5.69339 -0.23887,0.29315 -0.49502,1.11354 -0.64125,2.05171 -0.13401,0.85959 -0.45962,2.33808 -0.72371,3.28551 -0.26414,0.94741 -0.48026,2.21645 -0.48026,2.82064 0,0.60418 -0.1261,1.58724 -0.28049,2.18465 -0.15431,0.5974 -0.38695,1.73945 -0.516,2.53767 -0.23358,1.44413 -1.60118,7.89069 -2.48687,11.7223 -0.48066,2.07934 -1.32149,5.95405 -2.71357,12.50335 -0.44374,2.08766 -1.11537,5.10213 -1.49331,6.69857 -0.3779,1.59643 -1.0049,4.35926 -1.3932,6.13984 -0.6761,3.10114 -0.9882,3.98406 -1.7001,3.70188 -0.092,-0.0558 -0.1798,-0.13811 -0.262,-0.24885 -0.4348,-0.58562 -1.3243,-0.99036 -2.1777,-0.99036 -0.3878,0 -0.6294,0.0453 -0.9486,0.28387 -0.3111,0.0896 -0.5763,0.23336 -0.7498,0.43521 -1.5338,1.78491 -2.1644,2.41022 -3.2123,3.06679 -0.04,0.0226 -0.078,0.0464 -0.1186,0.0687 -0.7799,0.42654 -1.4564,0.84567 -2.0358,1.26481 -1.4348,1.00056 -2.5227,2.07288 -2.7987,2.8112 -0.3635,0.97348 -0.3616,2.76314 0,3.83618 0.1582,0.46295 0.3931,1.44092 0.5222,2.17297 0.1292,0.73199 0.4928,2.05065 0.808,2.93067 0.8222,2.29544 1.087,3.80765 0.7475,4.26825 -0.094,0.12867 -0.4668,0.3857 -0.9292,0.66205 -0.089,0.0478 -0.1713,0.0945 -0.2629,0.14237 -0.6361,0.33174 -1.1551,0.62414 -1.6454,0.93289 -0.6223,0.37592 -1.2665,0.7961 -1.7107,1.13183 -1.46,1.10341 -4.3686,3.9538 -5.4885,5.37901 -0.6623,0.84292 -0.7343,1.06833 -0.811,2.5134 -0.091,1.72844 -0.1632,1.99472 -0.7008,2.02475 -0.2005,-0.14935 -0.369,-0.15623 -0.5883,-0.0251 -0.2032,0.12155 -0.9824,0.20515 -1.731,0.18548 0,-10e-6 0,7e-5 0,0 -0.1483,-0.0342 -0.2811,-0.0425 -0.4052,-0.022 -16.3479,9.75774 -24.2425,14.58462 -27.7912,18.50574 0.1712,1.1239 0.348,2.17843 0.5112,3.04837 h 173.8763 c 0.0562,-0.49908 0.12512,-1.09281 0.21169,-1.8159 -12.60272,-2.83782 -30.34218,-7.21433 -47.67295,-11.2426 -0.13041,-0.10378 -0.22062,-0.11221 -0.34971,0.004 -0.27426,0.0705 -0.54585,0.27806 -0.6289,0.5565 -0.006,0.0185 -0.0154,0.034 -0.0238,0.0494 -0.15569,0.0657 -0.32256,0.0652 -0.53983,0.007 -0.1103,-0.0294 -0.17933,-0.0534 -0.26283,-0.0791 -0.18518,-0.12547 -0.35099,-0.29854 -0.42956,-0.49764 -0.0389,-0.0986 -0.0961,-0.1947 -0.16185,-0.28836 -0.0345,-0.1776 -0.15345,-0.29462 -0.29019,-0.32654 -0.38552,-0.35454 -0.86609,-0.55277 -1.00419,-0.30676 -0.12659,0.22537 -0.58118,0.47488 -0.98566,0.59603 -0.29903,-0.0334 -0.55734,-0.0851 -0.66418,-0.159 -0.0386,-0.0267 -0.0739,-0.0761 -0.10628,-0.13476 -0.004,-0.0936 0.002,-0.19853 0.0308,-0.32562 0.0865,-0.3857 0.0512,-0.51421 -0.25889,-0.61355 -0.19587,-0.31682 -0.68116,-0.36861 -1.38257,-0.12799 -0.63948,0.21938 -0.75035,0.17242 -1.84697,-0.77972 -0.64178,-0.55736 -1.75173,-1.33862 -2.46574,-1.73597 -2.10098,-1.16906 -3.3618,-2.15443 -5.69217,-4.44698 -1.20844,-1.18884 -2.83346,-2.72313 -3.61105,-3.40948 -1.09729,-0.96858 -1.49262,-1.47844 -1.7654,-2.27673 -0.37534,-1.09862 -1.10517,-1.78922 -3.05093,-2.88758 -0.3296,-0.18613 -0.6047,-0.31211 -0.84764,-0.38939 -0.18608,-0.12577 -0.41829,-0.27922 -0.54156,-0.36695 -0.30543,-0.21744 -0.62327,-0.42928 -0.95084,-0.64051 -0.0782,-0.3771 -0.25477,-0.5081 -0.78984,-0.70336 -1.24503,-0.45438 -1.84457,-1.07321 -3.03641,-3.13369 -1.25618,-2.17177 -2.82779,-4.10051 -3.88228,-4.7632 -0.38449,-0.24159 -1.41879,-1.03311 -2.29767,-1.75842 -0.87893,-0.72532 -1.82242,-1.38171 -2.09706,-1.45881 -0.27463,-0.0772 -1.12827,-0.48608 -1.89723,-0.90952 -1.21235,-0.66757 -1.57605,-0.76529 -2.73562,-0.73258 -1.18899,0.0335 -1.44585,-0.0407 -2.31445,-0.66383 -0.62569,-0.44878 -1.03082,-0.62981 -1.5881,-0.6818 -0.13362,-0.0163 -0.27327,-0.0256 -0.42735,-0.0256 -0.52393,0 -1.00054,-0.0873 -1.0602,-0.19448 -0.0593,-0.10719 -0.007,-1.07046 0.11688,-2.14064 0.23683,-2.05095 0.0916,-3.67436 -0.57598,-6.43536 -0.0911,-0.37675 -0.16282,-0.66266 -0.27168,-0.91088 -0.29803,-0.94289 -0.84776,-1.2499 -3.6128,-2.83053 -1.36514,-0.7804 -2.74507,-1.66686 -3.06682,-1.96951 -0.052,-0.0489 -0.0955,-0.0918 -0.13848,-0.13473 -0.34492,-0.84816 -0.25816,-2.48334 0.24258,-2.96257 0.3207,-0.30698 0.39955,-0.65865 0.39955,-1.78402 0,-0.78559 -0.0883,-1.40178 -0.20022,-1.40178 -0.0339,0 -0.0615,-0.008 -0.0864,-0.0184 -0.0358,-0.1 -0.0731,-0.18406 -0.11159,-0.2304 0.006,-0.20974 0.15304,-0.49778 0.39824,-0.64453 0.2197,-0.13143 0.39955,-0.38648 0.39955,-0.56637 0,-0.17986 -0.17985,-0.32653 -0.39955,-0.32653 -0.1045,0 -0.19408,0.0294 -0.25976,0.006 -0.0204,-0.0195 -0.0431,-0.0409 -0.0688,-0.0633 -0.1867,-0.38586 0.25344,-2.65881 2.49351,-14.90269 0.55053,-3.00864 1.10399,-5.97275 1.2291,-6.58673 0.12524,-0.61405 0.44482,-2.37215 0.71005,-3.90713 0.26519,-1.53503 0.80184,-4.49908 1.19295,-6.58674 1.63421,-8.72275 2.67401,-14.70036 2.58523,-14.86092 -0.002,-0.002 -0.0106,-0.006 -0.0106,-0.009 -0.01,-0.13386 -0.0687,-0.26499 -0.16759,-0.33462 -0.44595,-0.31326 -9.22961,-3.22276 -9.53651,-3.15885 z m -0.1301,60.45832 h 4.1e-4 0.004 c 0.093,0 0.18456,0.0705 0.26547,0.21693 0.0683,0.12338 0.65028,0.62378 1.29351,1.11209 0.64326,0.48832 1.56726,1.26643 2.05337,1.72924 0.4861,0.4628 1.12994,1.04208 1.43109,1.2877 l 0.5473,0.44645 -0.25843,2.73576 c -0.2719,2.8726 -0.29819,2.92582 -1.2591,2.51745 -0.39096,-0.16618 -0.51246,-0.37494 -0.51246,-0.88033 0,-0.36419 -0.0931,-0.72611 -0.2064,-0.80441 -0.1134,-0.0783 -0.39413,-0.58996 -0.62402,-1.13679 -0.0975,-0.23184 -0.1904,-0.41936 -0.28581,-0.58523 -0.27095,-0.56684 -0.78907,-0.88959 -1.60132,-0.99756 -0.0474,-0.01 -0.0879,-0.0211 -0.13846,-0.0305 l -0.38502,-0.0727 c -0.19447,-0.0588 -0.34479,-0.14271 -0.45998,-0.26635 l -0.0538,-1.70138 c -0.0323,-1.0346 -0.14614,-1.99997 -0.25361,-2.14467 -0.13109,-0.17158 -0.12983,-0.46622 0,-0.84798 0.1286,-0.37788 0.2889,-0.57653 0.44369,-0.57762 z m -2.44147,12.95968 c 0.0174,-0.002 0.0361,1.8e-4 0.0556,0.004 0.0934,0.0221 0.21112,0.12207 0.3462,0.30408 2.01294,0.55526 0.4394,0.89336 -0.41588,0.83676 -0.17351,-0.0114 -0.28756,-0.22114 -0.28756,-0.55831 0,-0.34294 0.17996,-0.57042 0.30167,-0.58613 z m 12.21085,7.3575 c 0.25959,0.019 0.62965,0.18484 1.17574,0.4168 l 3.71777,3.46964 c 1.04384,1.30802 1.89192,2.14198 2.56803,2.52422 0.5554,0.31393 1.42187,0.8031 1.9255,1.08695 0.50359,0.28379 1.65844,0.75487 2.56625,1.04785 1.60657,0.51847 1.67336,0.56879 2.50629,1.85182 0.47071,0.72509 1.13671,1.68197 1.47917,2.12673 0.34244,0.44473 0.62229,0.93402 0.62229,1.08783 0,0.15378 -0.42728,0.69069 -0.94908,1.19294 -2.16328,2.08216 -4.63931,4.94531 -5.07565,5.86854 -0.27638,0.58467 -0.5869,0.96214 -0.76075,0.92524 -0.16149,-0.0343 -0.69024,-0.69927 -1.17576,-1.47723 -0.24005,-0.38469 -0.60166,-0.87686 -1.01565,-1.40943 -1.02015,-1.36758 -2.44846,-2.99242 -3.89196,-4.42725 -0.66873,-0.68449 -1.30696,-1.30035 -1.8461,-1.76513 -0.89753,-0.77379 -1.72545,-1.67323 -1.83993,-1.9987 -0.11441,-0.32549 -0.4015,-1.53385 -0.6377,-2.68501 -0.40569,-1.97678 -0.41515,-2.25245 -0.17464,-4.96757 0.19864,-2.24166 0.23491,-2.91047 0.80618,-2.86824 z m -11.42981,6.73898 c 0.30416,0.0241 0.44434,0.2884 0.34663,0.72358 -0.0784,0.3492 0.0348,0.65265 0.37575,1.01059 0.30877,0.3242 0.52343,0.84799 0.58612,1.43007 0.24065,2.23461 0.27513,3.48672 0.0974,3.48672 -0.10425,0 -0.55353,-0.26978 -0.99934,-0.5996 -0.44585,-0.32979 -1.06565,-1.01412 -1.3773,-1.52035 -0.55773,-0.90625 -0.56211,-0.9405 -0.3078,-2.24666 0.34073,-1.75008 0.47076,-2.06609 0.92259,-2.2264 0.13505,-0.0479 0.25451,-0.0664 0.3559,-0.0579 z m -22.84161,5.65432 h 4e-4 c 0.4793,-0.007 0.6959,0.53231 0.6959,1.687 0,0.97661 0.1411,1.00151 -0.6219,1.29445 -0.763,0.29287 -2.2179,0.13093 -3.3931,0.24522 -1.1753,0.11427 -4.2673,0.0525 -4.2673,0.0525 0,0 1.5257,-2.09839 3.1122,-2.50174 0.7721,-0.19627 3.7908,-0.55493 4.0988,-0.68584 0.1391,-0.0591 0.2643,-0.0899 0.375,-0.0917 z m 19.11149,4.79241 c 0.64902,0 3.00203,1.52923 4.04278,2.6275 0.66698,0.70386 1.24272,1.35504 1.27896,1.44714 0.079,0.19868 -0.24266,0.19933 -2.80177,-0.0656 -0.25692,-0.0301 -0.51568,-0.0601 -0.76693,-0.093 -1.06352,-0.13933 -2.07273,-0.25366 -2.77929,-0.3243 -0.7315,-0.10881 -1.23869,-0.20724 -1.29304,-0.26319 -0.10833,-0.11195 0.0311,-0.37926 0.33959,-0.65036 0.28788,-0.25321 0.81294,-0.95942 1.16648,-1.56934 0.3535,-0.60988 0.71949,-1.10892 0.81322,-1.10892 z m 37.40653,0.22323 c 0.0703,0 0.91008,0.59619 1.86552,1.32496 2.43139,1.85455 6.85782,5.03862 7.60443,5.47017 0.45611,0.26372 0.66355,0.55752 0.63109,0.75456 -0.15213,1.4e-4 -0.32645,-0.0111 -0.52702,-0.035 -0.23238,-0.0278 -0.70077,-0.0604 -1.2494,-0.0939 -0.0623,-0.0251 -0.12855,-0.0507 -0.18213,-0.0754 -0.51677,-0.23884 -0.73449,-0.24591 -1.04035,-0.0323 -0.0236,0.0162 -0.0572,0.0285 -0.0882,0.0422 -0.47008,-0.0221 -0.9247,-0.0468 -1.4011,-0.0633 -1.61447,-0.0555 -4.13189,-0.21507 -5.59341,-0.3544 -1.46156,-0.1393 -3.23715,-0.30955 -3.94664,-0.37772 -1.1609,-0.11161 -1.35579,-0.20452 -1.94753,-0.92657 -0.11956,-0.14588 -0.22643,-0.30006 -0.32327,-0.4523 -0.0423,-0.10804 -0.0739,-0.20563 -0.0741,-0.26859 0,-0.18421 0.54657,-0.7799 1.2159,-1.3232 1.36793,-1.11022 4.86002,-3.58911 5.05623,-3.58911 z m -25.00604,0.0839 h 4.1e-4 c 0.01,0 0.0219,0.002 0.0357,0.006 v -7.7e-4 c 0.19471,0.051 0.74866,0.46937 1.33538,1.0173 0.77135,0.72043 1.34152,1.0953 1.55238,1.02047 0.20248,-0.0718 1.07009,0.42982 2.20905,1.27737 1.64085,1.22102 2.25436,1.84778 1.86637,1.91157 -0.0859,-0.009 -0.15867,-0.0128 -0.26505,-0.0279 -0.0525,-0.007 -0.19016,-0.0194 -0.25887,-0.0279 -0.43431,-0.0707 -1.60078,-0.17795 -2.78369,-0.25287 -1.15352,-0.0817 -2.25443,-0.23953 -2.44763,-0.35079 -0.045,-0.0259 -0.11001,-0.0815 -0.1861,-0.15587 l -0.42074,-0.521 c -0.39038,-0.48297 -0.79599,-1.13062 -0.901,-1.4395 -0.20752,-0.61017 -0.0472,-2.25231 0.23903,-2.4501 0.006,-0.005 0.0148,-0.006 0.0247,-0.006 z"
         style="fill:#1a1a1a;stroke-width:0.22787218" />
      <path
         inkscape:connector-curvature="0"
         id="path4644-3"
         d="m -1054.98,290.36678 a 119.20221,119.20221 0 0 0 87.26338,38.3155 119.20221,119.20221 0 0 0 87.41018,-38.3155 z"
         style="opacity:1;fill:#1a1a1a;fill-opacity:1;stroke:none;stroke-width:0.26458332;stroke-opacity:1" />
      <text
         id="text4705"
         y="127.36323"
         x="-1021.8916"
         style="font-style:normal;font-weight:normal;font-size:28.58145905px;line-height:1.25;font-family:sans-serif;letter-spacing:0px;word-spacing:0px;fill:#000000;fill-opacity:1;stroke:none;stroke-width:0.71453643"
         xml:space="preserve"><tspan
           style="stroke-width:0.71453643"
           y="127.36323"
           x="-1021.8916"
           id="tspan4703"
           sodipodi:role="line">Goinia</tspan></text>
    </g>
  </g>
</svg>
